<?xml version="1.0" standalone="no"?>
<!DOCTYPE svg PUBLIC "-//W3C//DTD SVG 20010904//EN"
 "http://www.w3.org/TR/2001/REC-SVG-20010904/DTD/svg10.dtd">
<svg version="1.0" xmlns="http://www.w3.org/2000/svg"
 width="916.000000pt" height="916.000000pt" viewBox="0 0 916.000000 916.000000"
 preserveAspectRatio="xMidYMid meet">
<metadata>
Created by potrace 1.11, written by Peter Selinger 2001-2013
</metadata>
<g transform="translate(0.000000,916.000000) scale(0.100000,-0.100000)"
fill="#000000" stroke="none">
<path d="M4329 9146 c-2 -2 -51 -7 -109 -11 -167 -12 -253 -21 -300 -31 -14
-3 -36 -7 -50 -9 -46 -6 -105 -15 -125 -19 -128 -28 -174 -37 -200 -41 -16 -2
-30 -4 -30 -5 0 0 -49 -14 -110 -31 -60 -16 -114 -31 -120 -33 -5 -1 -37 -11
-70 -21 -33 -10 -60 -17 -60 -16 0 0 -54 -20 -120 -45 -66 -25 -124 -46 -130
-48 -5 -1 -19 -7 -30 -13 -11 -6 -22 -11 -25 -11 -52 -3 -572 -268 -689 -351
-16 -12 -34 -21 -40 -21 -6 0 -11 -4 -11 -10 0 -5 -6 -10 -13 -10 -8 0 -25
-10 -38 -21 -13 -12 -42 -33 -64 -47 -68 -42 -295 -215 -295 -224 0 -4 -5 -8
-11 -8 -5 0 -22 -11 -37 -25 -15 -13 -47 -41 -71 -62 -158 -136 -378 -358
-488 -492 -16 -19 -45 -53 -65 -75 -21 -23 -38 -47 -38 -53 0 -7 -4 -13 -8
-13 -5 0 -26 -25 -48 -56 -21 -30 -44 -61 -49 -67 -6 -7 -25 -33 -43 -59 -18
-25 -39 -53 -47 -62 -9 -8 -16 -19 -17 -23 -1 -4 -25 -44 -53 -88 -28 -44 -60
-96 -71 -115 -10 -19 -22 -37 -25 -40 -3 -3 -25 -41 -48 -85 -24 -44 -48 -86
-53 -92 -6 -7 -7 -13 -3 -13 5 0 2 -8 -6 -17 -23 -29 -51 -83 -42 -83 4 0 3
-4 -3 -8 -9 -5 -40 -63 -49 -92 -1 -3 -14 -32 -29 -65 -15 -33 -36 -82 -47
-110 -11 -27 -24 -59 -30 -70 -6 -12 -11 -27 -13 -35 -2 -8 -8 -28 -15 -45 -6
-16 -15 -41 -20 -55 -5 -14 -13 -34 -17 -45 -4 -11 -8 -22 -9 -25 0 -3 -11
-35 -23 -71 -12 -36 -24 -74 -27 -85 -2 -10 -13 -50 -25 -89 -11 -38 -22 -79
-24 -90 -2 -11 -11 -49 -21 -84 -9 -35 -18 -77 -20 -92 -2 -16 -6 -36 -9 -46
-3 -10 -8 -34 -11 -53 -3 -19 -10 -57 -15 -85 -5 -27 -12 -70 -15 -95 -3 -25
-8 -56 -10 -70 -4 -23 -10 -73 -20 -170 -19 -176 -25 -563 -11 -735 4 -49 9
-117 11 -150 2 -33 4 -60 5 -60 1 0 3 -22 5 -50 2 -27 4 -50 5 -50 3 0 5 -16
14 -75 2 -19 7 -51 10 -70 3 -19 8 -48 10 -65 3 -16 12 -64 21 -105 9 -41 18
-84 20 -95 2 -11 9 -40 15 -65 6 -25 13 -56 16 -70 3 -14 9 -38 14 -55 5 -16
19 -61 30 -100 34 -116 41 -137 72 -225 30 -88 36 -104 58 -155 8 -16 14 -34
16 -40 1 -5 12 -32 25 -60 12 -27 23 -56 25 -64 1 -7 7 -18 13 -24 6 -6 11
-19 11 -29 0 -10 5 -18 10 -18 6 0 10 -6 10 -14 0 -13 98 -216 110 -226 3 -3
12 -18 20 -35 48 -98 300 -495 340 -535 3 -3 27 -34 55 -70 27 -36 57 -74 66
-85 10 -11 44 -51 75 -89 68 -81 66 -79 220 -237 67 -68 152 -151 189 -184 37
-33 81 -72 97 -88 16 -15 31 -27 33 -27 5 0 53 -40 87 -73 10 -9 22 -17 28
-17 5 0 13 -6 17 -13 4 -7 20 -20 34 -29 14 -9 32 -23 40 -30 22 -21 159 -118
166 -118 4 0 16 -8 27 -18 20 -18 216 -141 246 -155 8 -4 42 -23 75 -42 70
-41 308 -159 410 -203 127 -55 344 -137 389 -147 6 -1 20 -5 31 -9 48 -18 72
-26 95 -30 14 -3 57 -15 95 -26 39 -12 79 -23 90 -25 40 -8 127 -27 180 -40
41 -10 71 -16 110 -21 22 -4 72 -12 111 -18 39 -7 78 -12 88 -10 9 1 16 -1 16
-5 0 -4 19 -7 43 -8 23 -1 60 -4 82 -7 150 -21 634 -29 825 -13 52 5 116 10
141 12 25 2 59 7 75 10 16 3 56 8 88 11 33 3 63 7 67 10 4 2 29 7 56 10 26 3
55 7 63 9 8 2 31 7 50 10 19 3 50 10 67 16 18 6 36 8 40 6 5 -3 19 0 33 6 14
5 35 12 46 14 17 3 203 54 279 76 8 3 117 37 135 42 5 2 23 8 75 28 17 7 32
12 35 12 3 1 23 9 45 19 22 9 52 20 68 23 15 3 27 9 27 14 0 5 6 9 12 9 18 0
122 44 126 53 2 4 8 7 13 7 5 0 39 14 76 32 38 17 68 30 69 27 0 -2 7 1 15 8
8 6 43 27 79 45 166 87 409 238 536 332 23 17 54 40 70 51 30 22 182 143 200
160 6 5 40 35 75 65 115 100 264 246 365 356 78 85 104 116 205 242 60 75 114
142 119 149 6 7 10 15 10 18 0 3 11 18 25 33 14 15 25 32 25 39 0 7 5 13 10
13 6 0 10 6 10 14 0 8 4 16 8 18 8 3 63 82 92 133 10 17 35 59 57 95 64 104
214 387 218 410 1 3 11 25 22 50 36 76 122 290 117 290 -2 0 2 12 10 27 7 16
26 66 41 113 15 47 29 92 32 100 4 8 7 21 9 28 1 7 9 36 17 65 9 28 23 77 31
107 9 30 21 78 26 105 6 28 13 61 16 75 3 14 7 34 9 45 2 11 8 45 14 75 18 93
20 102 37 223 12 81 13 92 19 167 4 41 8 95 11 120 14 136 7 643 -11 810 -14
123 -18 157 -50 350 -4 26 -63 295 -70 320 -5 21 -45 163 -49 175 -1 6 -8 30
-15 55 -7 25 -17 54 -22 65 -4 11 -15 40 -23 65 -90 273 -257 625 -429 904
-83 135 -247 366 -259 366 -4 0 -8 7 -8 15 0 9 -7 18 -15 21 -8 4 -15 12 -15
19 0 7 -3 15 -8 17 -4 2 -25 25 -47 53 -22 27 -49 59 -60 71 -11 12 -45 50
-75 85 -78 89 -260 270 -365 363 -50 44 -91 83 -93 88 -2 4 -8 8 -13 8 -8 0
-39 24 -83 65 -8 8 -127 97 -231 173 -60 44 -214 142 -223 142 -7 0 -12 4 -12
8 0 5 -17 18 -37 29 -21 11 -67 37 -103 57 -78 44 -357 183 -420 209 -25 11
-63 27 -85 36 -22 10 -74 30 -115 45 -41 15 -90 34 -108 42 -18 8 -41 14 -50
14 -10 0 -22 4 -28 9 -5 5 -20 11 -34 13 -14 1 -27 6 -30 10 -3 4 -17 8 -30
10 -14 2 -31 7 -37 11 -7 5 -13 6 -13 3 0 -3 -12 -1 -27 5 -31 12 -126 38
-155 42 -9 2 -21 6 -24 10 -4 4 -22 7 -39 7 -17 0 -35 3 -39 7 -3 4 -14 8 -24
9 -9 0 -55 9 -102 18 -99 20 -122 24 -170 30 -19 3 -35 5 -35 6 0 1 -34 6
-110 15 -27 3 -66 8 -85 10 -90 12 -206 17 -456 20 -150 2 -274 2 -275 1z
m434 -3017 c106 -17 138 -23 192 -36 17 -4 32 -7 35 -8 32 -7 134 -41 169 -57
76 -34 184 -87 216 -105 81 -48 229 -166 310 -247 92 -93 102 -105 145 -166
13 -19 27 -37 30 -40 16 -13 94 -148 129 -222 41 -87 104 -258 95 -258 -3 0
-2 -6 3 -12 4 -7 8 -17 9 -23 1 -5 5 -26 9 -45 4 -19 9 -44 11 -55 1 -11 5
-29 8 -41 16 -73 22 -280 12 -384 -11 -97 -15 -124 -41 -242 -5 -22 -32 -112
-42 -138 -3 -8 -7 -19 -9 -25 -1 -5 -11 -31 -23 -58 -11 -26 -20 -48 -20 -50
0 -2 -64 -119 -92 -167 -13 -22 -30 -47 -94 -136 -36 -49 -170 -194 -180 -194
-2 0 -23 -18 -46 -40 -77 -73 -276 -198 -389 -244 -72 -30 -144 -57 -162 -62
-10 -2 -28 -7 -40 -10 -13 -3 -34 -8 -48 -11 -14 -2 -32 -7 -40 -10 -17 -6
-25 -8 -95 -18 -86 -12 -198 -20 -255 -19 -70 2 -222 14 -229 18 -3 2 -24 7
-46 10 -46 8 -149 33 -185 46 -77 27 -167 64 -177 72 -7 6 -13 8 -13 5 0 -3
-27 10 -61 29 -33 18 -63 34 -65 34 -2 0 -27 16 -54 35 -27 19 -53 35 -58 35
-4 0 -14 9 -22 20 -8 11 -18 20 -23 20 -19 0 -153 125 -230 213 -10 12 -29 34
-42 49 -80 90 -210 321 -250 443 -9 28 -20 59 -25 70 -5 11 -11 34 -14 50 -7
35 -14 60 -16 60 -1 0 -3 9 -5 20 -2 11 -6 36 -9 55 -3 19 -10 60 -15 90 -10
58 -8 367 3 410 3 14 8 43 11 65 2 22 11 65 20 95 9 30 18 65 21 78 12 61 129
322 147 330 4 2 7 9 7 16 0 12 10 27 58 86 12 15 22 31 22 36 0 22 178 211
275 290 110 90 344 231 359 216 3 -3 6 0 6 6 0 7 7 12 15 12 8 0 39 11 70 24
30 14 55 23 55 20 0 -2 16 3 37 11 20 8 38 13 41 11 2 -3 16 0 31 6 14 5 36
12 49 14 12 2 34 6 50 9 15 3 50 8 77 11 28 4 51 8 53 9 8 7 286 1 335 -6z"/>
<path d="M8390 1180 c-25 -6 -52 -13 -60 -17 -8 -3 -17 -7 -20 -8 -32 -11 -70
-31 -107 -57 -58 -39 -149 -131 -158 -158 -3 -11 -11 -20 -16 -20 -5 0 -8 -3
-7 -7 1 -5 -6 -23 -15 -40 -10 -18 -15 -33 -11 -33 4 0 2 -6 -3 -12 -15 -19
-33 -108 -30 -146 2 -18 0 -35 -5 -38 -5 -3 -6 -8 -4 -12 2 -4 7 -29 10 -57
12 -86 51 -182 101 -245 38 -47 138 -140 159 -146 12 -3 28 -12 36 -19 47 -37
238 -69 310 -50 14 4 32 7 40 7 24 -1 142 50 186 80 90 60 167 153 204 247 28
71 33 103 35 206 1 72 -4 104 -23 160 -56 161 -173 281 -337 345 -60 24 -214
34 -285 20z"/>
</g>
</svg>
