<?xml version="1.0" encoding="utf-8"?>
<!-- Generator: Adobe Illustrator 23.1.1, SVG Export Plug-In . SVG Version: 6.00 Build 0)  -->
<svg version="1.1" id="レイヤー_1" xmlns="http://www.w3.org/2000/svg" xmlns:xlink="http://www.w3.org/1999/xlink" x="0px"
	 y="0px" viewBox="0 0 98.3 22.7" style="enable-background:new 0 0 98.3 22.7;" xml:space="preserve">
<style type="text/css">
	.st0{fill:none;stroke:#ffffff;stroke-width:0.2;stroke-miterlimit:10;}
</style>
<g>
	<path class="st0" d="M21.1,12.6c0.2,0.1,0.2,0.3,0.2,0.4c0,0.2-0.1,0.3-0.8,0.4c-0.2,0.2-0.3,0.4-0.8,0.9c0.8,0.5,1.3,0.7,2,1.2
		c-0.4,0.4-0.6,0.7-1.3,1.5c1,1,1.8,1.4,2.5,1.5c-0.2,1.3-0.9,3.9-3.5,3.9c-1.1,0-5.1-1.2-5.9-9.5h-1v9.3H8.8V13H7.3
		c-0.1,1.5-0.5,5.9-3.8,9.3c-0.9-0.9-1.8-1.5-3.3-2.2c3-2.9,3.3-5.9,3.5-7.1H0.7V9.6h3.1l0-1.5C2.9,8.4,2.7,8.5,2.3,8.6
		c-0.6-1.5-1-2.2-1.9-3c1.4-0.1,3.9-0.4,5.5-1.4H1.6V1.1h15.8c0,0.5,0,0.7,0,1c1.2-0.9,1.9-1.6,2.1-1.9L22,2c0.1,0,0.2,0.1,0.2,0.3
		c0,0.1-0.1,0.3-0.4,0.3c-0.2,0-0.4-0.1-0.5-0.1c-0.7,0.8-1.3,1.3-1.4,1.4c1.1,0.6,1.6,0.9,2.6,1.6c-0.8,0.9-1.3,1.7-1.5,2.1
		c1,0.9,1.5,1.1,2,1.3c-0.5,2-0.8,3.2-2.3,3.5L21.1,12.6z M8.8,4.2H7.3l1.5,1.5V4.2z M7.4,9.6h1.4V6.7c-0.2,0-0.4-0.1-0.5-0.2
		C8,6.6,7.9,6.7,7.4,6.9L7.4,9.6z M12.6,9.6h3.1c-1.2-1.8-1.6-4.4-1.7-5.4H9.1l3.5,0.3C13,4.6,13.2,4.7,13.2,5
		c0,0.2-0.2,0.3-0.6,0.4V9.6z M16.8,11c0,0.5,0,1.9,0,2.3c0.5-0.5,0.8-0.9,1.2-1.4C17.6,11.6,17.3,11.4,16.8,11z M16.9,13.6
		c0.1,0.7,0.4,2,0.5,2.3l1-1.3L16.9,13.6z M18.7,4c-0.4-0.4-0.9-0.8-1.4-1.2c0.1,1.2,0.2,2.1,0.3,2.6L18.7,4z M17.7,16.3
		c0.6,2,1.5,2.7,1.8,2.7c0.2,0,0.3-0.1,0.5-1C19.2,17.2,18.5,16.8,17.7,16.3z M19.8,8.8c0.3,0,0.4-0.9,0.5-1.2
		c-0.6-0.5-1.3-0.8-2.4-1.4C18.6,8.8,19.7,8.8,19.8,8.8z"/>
	<path class="st0" d="M46.4,6.6v0.9h-2.1v0.6h2.1V9h-2.1v0.6h3.2V11h-8.2c0,0.1-0.3,0.5-0.3,0.5h6.9v4.4H35.1v0.5h12.7v1.1H35.1V18
		h12.6c0,0,0.1,2.6-0.9,3.6c-0.8,0.8-1.8,0.8-4,0.8c0-0.4-0.1-0.7-0.2-1.2c-0.7,0.1-1.4,0.3-2,0.5c-0.3-1.2-0.6-1.7-0.8-2.1l0.7-0.2
		h-1.4c0.1,0.1,0.5,1,0.9,2.2c-0.3,0-1.4,0.2-2.4,0.6c-0.2-0.6-0.5-1.6-0.9-2.4l1-0.4H36c0.1,0.3,0.6,1.6,0.9,2.4
		c-1,0.1-1.9,0.4-2.8,0.8c-0.1-0.6-0.2-1.1-0.6-2.4c-0.1,0.2-0.3,0.2-0.5,0.2c-0.3,0.9-0.7,1.5-1.2,2.3c-0.9-0.6-1.5-0.9-2.5-1.2
		c0.7-0.9,1.1-1.7,1.5-2.8l0.8,0.4v-7.4h3.8c0.3-0.6,0.3-0.8,0.4-1.1l0.7,0.1V9c-0.2-0.5-1.1-1.4-1.4-1.7V11h-3V8.9
		c-0.3,0.2-0.4,0.3-0.6,0.5c-0.1-0.4-0.2-0.6-0.6-1.2v1.9c0,2.3,0,8-2.1,12.2c-1-0.7-2-1.3-3.2-1.8c1.6-2.8,1.8-7.1,1.8-10.1V1.8
		h8.2V0.7l4.3,0.1c0.2,0,0.3,0,0.3,0.3c0,0.2-0.3,0.3-0.6,0.5v0.3h8.2v2.2h-2.3c0.1,0.3-0.1,0.3-0.5,0.3c0,0.1-0.2,0.3-0.3,0.5h2.8
		v1.2h-3.2v0.5H46.4z M30.8,6.2c0.8-0.6,1.6-1.5,2.1-2.2h-2.1V6.2z M34.7,19.4h-2.3l0.7,0.4c0.1,0.1,0.2,0.1,0.3,0.2l0-0.1
		L34.7,19.4z M35,6.6c1.3-1.1,2-2.2,2.3-2.6h-1.7l0.5,0.4c0.1,0.1,0.2,0.2,0.2,0.3C36.3,4.9,36.2,5,36,5c-0.1,0-0.2,0-0.3-0.1
		c-0.3,0.4-0.4,0.6-0.7,0.8L35,6.6L35,6.6z M42.3,13.2v-0.6h-7.2v0.6H42.3z M35.1,14.2v0.6h7.2v-0.6H35.1z M41.2,6.6V6.1h-1.7v0.5
		H41.2z M41.2,8.1V7.5h-1.7v0.6H41.2z M39.5,9v0.6h1.7V9H39.5z M41,4.1c0,0.2-0.2,0.3-0.6,0.4c-0.1,0.1-0.2,0.3-0.3,0.4h1.2
		c0.2-0.3,0.3-0.5,0.5-0.8L41,4.1L41,4.1z M42,19.4c0.1,0.2,0.1,0.4,0.2,0.5c0.4,0.1,0.8,0.2,1.1,0.2c0.6,0,0.6-0.1,0.7-0.7
		C44,19.4,42,19.4,42,19.4z"/>
	<path class="st0" d="M63.6,13.3h4.8v3.4h-4.8v1.9H72v3.5H51.3v-3.5h8.4v-1.9h-4.5v-3.4h4.5v-1.8H55v-1.1c-1.4,0.9-1.8,1.1-2.2,1.3
		c-0.5-1-1.8-2.5-2.6-3.2C54,7,58,3.7,59.7,0.5l4.2,0.6c0.2,0,0.5,0.1,0.5,0.4c0,0.3-0.3,0.4-0.5,0.5c0.8,1.2,4.2,4.2,9.4,6.2
		c-1,1-1.8,2.3-2.2,3.4c-0.4-0.2-1-0.4-2.3-1.1v1h-5L63.6,13.3L63.6,13.3z M65,8.2c-2-1.5-3.1-2.6-3.7-3.2c-0.5,0.7-1.1,1.4-3.3,3.2
		H65z"/>
	<path class="st0" d="M75.5,20.3c0.9-1.4,2.8-5.1,3.4-7.8c0.8,0.8,2.1,1.9,3.2,2.2c-0.5,1.5-1.3,3.8-2.8,7c0.1,0.2,0.1,0.4,0.1,0.5
		c0,0.2-0.1,0.3-0.3,0.3c-0.1,0-0.3-0.1-0.5-0.2L75.5,20.3z M77.5,6.2C79,7,80.3,7.9,81.6,9c-0.2,0.3-1.4,1.9-2,3
		c-1.1-0.9-2.8-2.1-4.1-2.7L77.5,6.2z M79.1,0.6C80.5,1.4,82,2.5,83,3.5c-0.6,0.6-2,2.6-2.3,3.1c-0.9-0.9-2.4-2.2-3.8-3.1L79.1,0.6z
		 M94,13.4c1.7,2.1,3.5,5.4,4.2,7.1c-1.6,0.8-2.3,1.1-3.6,1.8c-0.2-0.6-0.4-1.1-0.9-2.1c-1.4,0.3-3.6,0.8-5.9,1.1
		c-0.7,0.1-3.6,0.4-4.2,0.5c-0.1,0.2-0.3,0.4-0.5,0.4s-0.3-0.3-0.3-0.5L82,18.1c0.3,0,0.5,0,0.8,0c0.3,0,0.6,0,1.7-0.1
		c0.8-1.5,1.8-3.9,2.2-5h-4.5V9.5h5.6v-2h-4.6V4h4.6V0.8l4.1,0.1c0.3,0,0.5,0.1,0.5,0.4c0,0.2-0.2,0.4-0.6,0.5V4H97v3.5h-5.3v2h6.1
		V13h-6.1c0,0.4-0.8,0.5-1,0.5c-0.7,1.7-1.2,2.7-1.9,4.1c1.1-0.1,2.2-0.3,3.3-0.5c-0.8-1.3-1-1.6-1.4-2L94,13.4z"/>
</g>
</svg>
