<?xml version="1.0" encoding="utf-8"?>
<!-- Generator: Adobe Illustrator 23.1.1, SVG Export Plug-In . SVG Version: 6.00 Build 0)  -->
<svg version="1.1" id="レイヤー_1" xmlns="http://www.w3.org/2000/svg" xmlns:xlink="http://www.w3.org/1999/xlink" x="0px"
	 y="0px" viewBox="0 0 97.7 22.5" style="enable-background:new 0 0 97.7 22.5;" xml:space="preserve">
<style type="text/css">
	.st0{fill:none;stroke:#ffffff;stroke-width:0.2;stroke-miterlimit:10;}
</style>
<g>
	<path class="st0" d="M8.1,15.2v-3.5h3.9V9.8H7.4V6.3h4.6V4.5H8.4V2.1c-0.1,0-0.2,0-0.4,0C7.6,3.6,7.2,4.4,6.7,5.6
		c0.6,0.2,0.6,0.2,0.6,0.5c0,0.3-0.3,0.3-0.5,0.4V22h-4v-9.6c-0.3,0.4-0.4,0.5-0.6,0.8c-0.5-1.4-1.3-2.9-2-3.6
		c2-2.6,3.8-6.4,4.5-9.4l3.7,1.2V1h13.4v5.3h0.8v3.5h-0.8v6.2h-4v-0.9h-2.2c-0.9,4.2-3.8,6.4-4.9,7.2c-0.8-1.1-2-2.1-3.1-2.7
		c2.7-1.7,3.6-3,4-4.5L8.1,15.2L8.1,15.2z M15.8,6.3h2V4.5h-2C15.8,4.5,15.8,6.3,15.8,6.3z M15.8,11.7h2V9.8h-2
		C15.8,9.8,15.8,11.7,15.8,11.7z"/>
	<path class="st0" d="M33.8,18.8c0,1.9-0.1,3.1-3.7,3c-0.1-1.1-0.5-2.3-0.9-3.2c-0.4,1.7-0.5,2.3-1,3.2c-1-0.6-2.4-1.1-3.2-1.3
		c1-2.3,1.4-4,1.4-8.5V5.5h4.2V4.7h-5.2V1.8h5.2V0.5l4,0.1c0.2,0,0.5,0,0.5,0.3c0,0.3-0.4,0.4-0.6,0.5v0.4h3.5V0.5L42,0.7
		c0.3,0,0.4,0,0.4,0.2c0,0.3-0.3,0.5-0.6,0.6v0.3h5.3v2.8h-5.3v0.7h-2l1.6,0.3c0.2,0.1,0.3,0.1,0.3,0.3c0,0.2-0.2,0.3-0.5,0.5
		c0,0.3-0.1,0.5-0.2,0.8h2.2l-1.6-0.6c0.4-0.6,0.9-1.3,1.2-1.8l2.9,0.8c0.1,0.1,0.4,0.1,0.4,0.4S46,6.4,45.4,6.4
		c-0.3,0.6-0.4,0.7-0.5,0.8H46v2.2h-2.1c0.1,0.2,0.2,0.4,0.4,0.9H47v2.3h-1.3c1,1,1.7,1.4,2.1,1.6c-0.4,0.3-0.9,0.7-2,2.3
		c-0.3-0.2-0.4-0.3-0.8-0.7c-0.1,0.1-0.7,0.8-1.4,1.4c1,0.6,2.4,1.5,3.2,2.3c-0.9,0.8-1.7,1.8-2.1,2.3c-1.2-1.4-2.6-2.3-3-2.5v0.4
		c0,2.1-1.4,2.3-4.1,2.2c0-0.8-0.2-1.4-0.6-2.3c-0.6,0.4-1.1,0.7-1.6,1.1c0,0.3-0.1,0.6-0.4,0.6c-0.2,0-0.3-0.2-0.3-0.4L33.8,18.8z
		 M30.8,16.1h-1.2c-0.1,1-0.1,1.4-0.3,2.2c0.3,0,0.9,0.1,1.1,0.1c0.4,0,0.4-0.3,0.4-0.7V16.1z M30.8,8.3h-1.1v1.4h1.1V8.3z
		 M30.8,12.1h-1.1v1.4h1.1V12.1z M34.2,12.7v-2.3h2.5c0.2-0.4,0.3-0.7,0.4-0.9h-2.5V7.3h0.6c-0.3-0.4-0.5-0.6-1-1.2l2.2-1.4
		c0.7,0.7,1,1.1,1.5,1.7C37.2,7,37,7.1,36.7,7.3h1.1c0.1-0.4,0.3-1,0.4-1.9h-0.1V4.7h-3.5v1h-0.8v8.2c0.8-0.6,1.2-0.9,1.4-1.1H34.2z
		 M33.8,18.4c2-0.6,2.5-0.8,4.2-1.8c0,0.1,0,0.2,0.1,0.9c0.1,0.6,0.2,0.9,0.3,1.2c-0.2,0.2-0.3,0.2-1,0.7c1,0,1.1-0.1,1.1-0.6V13
		l3.2,0.3c0.2,0,0.4,0.1,0.4,0.3c0,0.3-0.4,0.4-0.6,0.5v1.1c0.3-0.3,0.8-0.8,1.3-1.4c-0.2-0.3-0.4-0.6-0.7-1.1h-3.6
		c-0.3,0.4-0.5,0.9-1.1,1.6c0.7,0.9,0.8,1,1,1.2c-0.7,0.5-1.3,1.1-2.4,2c-0.2-0.3-0.3-0.5-0.8-1.1c-0.3,0.3-0.4,0.3-0.6,0.4
		c-0.2-0.5-0.3-0.9-1-2V18.4z M40.2,9.5c-0.1,0.2-0.2,0.5-0.4,0.9h1.5c-0.2-0.6-0.2-0.7-0.3-0.9H40.2z M42.5,16.7
		c0.3,0.1,0.4,0.2,0.8,0.4c-0.6-0.8-0.7-1-1.6-1.8v2.6L42.5,16.7z"/>
	<path class="st0" d="M65.5,18.3h6.3v3.4H50.2v-3.4h6.3v-2.9h-5.2V6.2h5.2v-2h-5.7V0.9h20.4v3.3h-5.8v2h5.2v9.2h-5.2L65.5,18.3
		L65.5,18.3z M56.5,9.4H55v2.8h1.5V9.4z M60.2,6.2h1.5v-2h-1.5V6.2z M61.8,9.4h-1.5v2.8h1.5V9.4z M61.8,15.4h-1.5v2.9h1.5V15.4z
		 M65.5,12.2H67V9.4h-1.5V12.2z"/>
	<path class="st0" d="M97.1,12.5c0.2,0.1,0.4,0.2,0.4,0.4c0,0.4-0.5,0.4-0.7,0.4c-3.5,7.2-9.9,8.7-11.9,9.1
		c-0.2-0.9-1.4-2.3-2.3-3.1c3-0.4,5.8-1.6,8.1-3.6c-0.5,0.1-0.9,0.2-3,0.2c0-0.4-0.1-1.8-1-3.8c-0.7-0.4-0.9-0.5-1.4-0.8
		c0.1,0.5,0.2,0.9,0.3,1.4c-0.9,0.2-1.9,0.6-2.8,1c-0.1-0.6-0.1-0.6-0.2-0.9c-0.5,0.1-0.6,0.1-0.8,0.1v9.2h-3.5v-7.2
		C78.1,15,78,15,77.9,15.1c-0.2,2.4-0.2,3.6-0.7,5.7c-0.9-0.4-1.6-0.6-2.4-0.8c0.6-2,0.7-5,0.7-6.1l2.5,0.3c0.1,0,0.1,0,0.2,0.1
		v-1.2c-1.2,0.1-1.4,0.1-1.9,0.1c0,0.2-0.1,0.4-0.2,0.5C76.1,13.9,76,14,75.9,14c-0.1,0-0.3-0.1-0.3-0.4l-0.5-3.4h1.1
		c0.5-0.5,1.3-1.3,1.6-1.8c-0.4-0.5-1.4-1.7-3-3.2L77,2.4c0.3,0.3,0.4,0.3,0.7,0.7c0.9-1.5,1.2-2.2,1.5-2.9l3.1,1.2
		c0.1,0,0.3,0.2,0.3,0.3c0,0.4-0.6,0.3-0.8,0.3c-0.6,1.2-1.1,2-2.1,3.3c0.1,0.1,0.3,0.4,0.4,0.5c1.1-1.4,1.5-2,1.8-2.5L85,5
		c0.1,0.1,0.2,0.2,0.2,0.3c0,0.3-0.3,0.3-0.5,0.3c-0.1,0-0.2,0-0.3-0.1c-1,1.3-2.4,2.7-2.6,3l2.1-0.7c0.2,0.4,0.2,0.5,0.4,0.9
		c0.7-1.4,1.2-3,1.4-4.5L88.7,5C88.8,5,88.9,5,88.9,5V0.4l3.7,0.1c0.1,0,0.5,0,0.5,0.3c0,0.3-0.4,0.4-0.5,0.5V5L94.8,4
		c1,1.4,2.3,4.2,2.8,5.6c-0.6,0.3-1.8,0.9-2.9,1.8L97.1,12.5z M80.3,10.1c0.3,0,0.8,0,1.8-0.1c-0.3-0.8-0.3-0.9-0.5-1.3L80.3,10.1z
		 M84.4,13.7c0.1,1.7,0.5,3.3,0.8,4.3c-1.3,0.3-1.8,0.5-2.6,0.9c-0.3-1.4-0.5-2.5-0.7-4.5L84.4,13.7z M88.9,5.7
		c-0.1,0-0.2,0.1-0.3,0.1c-0.4,1.5-1.1,4.2-2,6.3c0.8,0.2,1.4,0.2,1.5,0.2c0.8,0,0.8-0.3,0.8-0.9C88.9,11.3,88.9,5.7,88.9,5.7z
		 M94.3,11.2c-0.5-1.7-1.1-3.2-1.8-4.7v5.9c0,0.4,0,0.6,0,0.8c0.2-0.4,0.6-1.1,1.1-2.4L94.3,11.2z"/>
</g>
</svg>
