<?xml version="1.0" encoding="utf-8"?>
<!-- Generator: Adobe Illustrator 23.1.1, SVG Export Plug-In . SVG Version: 6.00 Build 0)  -->
<svg version="1.1" id="レイヤー_1" xmlns="http://www.w3.org/2000/svg" xmlns:xlink="http://www.w3.org/1999/xlink" x="0px"
	 y="0px" viewBox="0 0 96.9 22.3" style="enable-background:new 0 0 96.9 22.3;" xml:space="preserve">
<style type="text/css">
	.st0{fill:none;stroke:#ffffff;stroke-width:0.2;stroke-miterlimit:10;}
</style>
<g>
	<path class="st0" d="M21.6,1.8v6h-4V4.9H4.1v3h-4v-6h8.6V0.3l4.4,0.1c0.1,0,0.5,0,0.5,0.3c0,0.3-0.4,0.4-0.6,0.5v0.6L21.6,1.8
		L21.6,1.8z M19.4,13.7v8.2h-4v-0.5H6.2v0.5h-4v-8.2h5.3c0.3-0.7,0.3-0.8,0.5-1.2H4.5V5.7h12.7v6.7h-4.7c-0.1,0.2-0.4,0.8-0.6,1.2
		H19.4z M15.4,18.1v-1.5H6.2v1.5H15.4z M8.2,8.5v1.4h5.2V8.5H8.2z"/>
	<path class="st0" d="M26,5.7C26.7,6,28.5,7,29.8,8.2c-0.6,1-1.1,1.8-1.7,3.4C27.5,11,26.2,9.9,24.3,9L26,5.7z M24.5,19.9
		c1.7-2.7,2.9-6.1,3.5-8.2c0.6,0.6,1.3,1.4,3,2.3c-0.8,2.5-1.3,3.5-2.8,6.8c0.2,0.2,0.4,0.4,0.4,0.6c0,0.2-0.1,0.3-0.3,0.3
		c-0.1,0-0.2,0-0.2,0L24.5,19.9z M27.6,0.2c1.1,0.5,2.9,1.6,3.8,2.4c-0.8,1-1.3,1.7-2.1,3.2c-1.1-1-2.9-2.2-3.8-2.6L27.6,0.2z
		 M46.6,5.8v2.8h-1.1v3.6h-5.4V13h5.6v2.7h-5.6v0.8h6.5v3.1h-6.5v2.4h-3.9v-2.4h-5.5v-3.1h5.5v-0.8h-4.7V13h4.7v-0.8h-4.2V9.6h4.2
		v-1h-5.4V5.7h5.4V4.8h-4.2V2.1h4.2V0.4l4.1,0.1c0.2,0,0.3,0,0.3,0.3c0,0.4-0.5,0.5-0.6,0.5v0.8h5.4v3.6L46.6,5.8L46.6,5.8z
		 M41.8,5.8V4.8h-1.7v0.9H41.8z M40.1,8.6v1h1.7v-1H40.1z"/>
	<path class="st0" d="M50.3,9.6V5.7H59V0.3l4.4,0.2c0.1,0,0.5,0,0.5,0.4c0,0.3-0.3,0.4-0.6,0.5v4.4h8.5v3.9h-8.2
		c2.5,5.8,6.2,7.8,8.7,8.9c-1.3,1-2.2,2.2-2.8,3.6c-3.2-1.5-6.7-4.9-8.3-8c-2,3.6-5.1,6.4-8.9,8c-0.6-1.3-1-1.9-2.7-3.7
		c4.5-1.6,7.8-4.6,9-8.9L50.3,9.6L50.3,9.6z"/>
	<path class="st0" d="M81.9,15.7h2.9v2.8h-2.9v3.4h-3.4v-3.4h-3.2v-2.8h3.2v-0.9h-2.8V6.3h2.8V5.4h-3.1V2.6h3.1V0.4l3.5,0.1
		c0.1,0,0.4,0,0.4,0.3s-0.2,0.4-0.6,0.5v1.3h2.9v2.8h-2.9v0.8h2.8v8.6h-2.8V15.7z M78.9,9.7v-1h-0.8v1H78.9z M78,11.4v1h0.8v-1H78z
		 M82.5,9.7v-1h-0.9v1H82.5z M81.6,11.4v1h0.9v-1H81.6z M94.4,0.1C94.7,0.3,95.9,1,96.8,2c-0.3,0.3-0.6,0.5-1.1,1h1.1v2.9h-4.4v1h4
		V19c0,2.2-0.6,2.8-3.5,2.9c-0.1-0.6-0.1-1.6-0.7-2.7v2.3h-2.8V17h-1.1v4.9h-3v-15h3.9v-1h-4V3h4V0.4l3.3,0.1c0.1,0,0.5,0,0.5,0.3
		c0,0.2-0.4,0.4-0.6,0.5V3h1.4c-0.3-0.3-0.5-0.5-1.2-1.1L94.4,0.1z M89.4,10.9V9.8h-1.1v1.1H89.4z M89.4,14.4v-1.1h-1.1v1.1H89.4z
		 M93.3,10.9V9.8h-1.1v1.1H93.3z M93.3,14.4v-1.1h-1.1v1.1H93.3z M92.2,17v1.3c0.1,0,0.5,0.1,0.6,0.1c0.5,0,0.5-0.3,0.5-0.8V17H92.2
		z"/>
</g>
</svg>
