<?xml version="1.0" encoding="utf-8"?>
<!-- Generator: Adobe Illustrator 23.1.1, SVG Export Plug-In . SVG Version: 6.00 Build 0)  -->
<svg version="1.1" id="レイヤー_1" xmlns="http://www.w3.org/2000/svg" xmlns:xlink="http://www.w3.org/1999/xlink" x="0px"
	 y="0px" viewBox="0 0 99 22.2" style="enable-background:new 0 0 99 22.2;" xml:space="preserve">
<style type="text/css">
	.st0{fill:none;stroke:#ffffff;stroke-width:0.2;stroke-miterlimit:10;}
</style>
<g>
	<path class="st0" d="M19.3,14.5v0.7c0,0.2,0,0.6,0.4,0.6s0.4-0.6,0.4-0.9c0.7,0.3,1.2,0.6,2.3,0.7c-0.1,0.7-0.3,2.2-2.1,2.2h-2
		c-0.6,0-1.7-0.2-1.7-1.6v-1.7h-2.1l1.6,0.4c0.1,0,0.4,0.1,0.4,0.3c0,0.2-0.3,0.3-0.4,0.3c-0.3,1.1-0.5,1.8-1.1,2.8h7.3v2.8h-9.6
		v0.7H9.2v-7.2H8.6v-1.3c-0.1,0.2-0.6,1.3-0.7,1.5c-0.5-0.8-0.6-1-0.8-1.4v8.4H3.5v-7.5C3,15.5,2.6,16.4,2.3,17
		c-0.3-0.7-1.7-2.4-2.2-2.9c1.6-1.9,2.7-4.8,3.2-6.5H0.9V4.2h2.6V0.3l3.3,0.1c1,0,1.1,0,1.1,0.3c0,0.4-0.5,0.4-0.7,0.5v3h1.7V1.6
		h1.5V0.3l3.4,0.1c0.4,0,1,0,1,0.3c0,0.3-0.5,0.4-0.9,0.6v0.5h3.4V0.3l3.3,0.1c0.4,0,0.9,0,0.9,0.3c0,0.3-0.4,0.4-0.6,0.5v0.5h1.5
		v2.8h-1.5v7.3h1.8v2.8H19.3z M10.4,4.4H8.9v3.2H7.3c0.1,0.2,1.2,2.4,2.6,3.9c-0.1,0.1-0.1,0.1-0.2,0.2h0.5V4.4z M12.6,14.5v2.2
		c0.4-0.7,0.7-1.5,0.9-2.2C13.5,14.5,12.6,14.5,12.6,14.5z M12.6,17.3v1h2.3C14.4,17.9,13.4,17.6,12.6,17.3z M17.2,4.4h-3.4v0.8h3.4
		V4.4z M17.2,7.6h-3.4v0.9h3.4V7.6z M17.2,10.7h-3.4v1h3.4V10.7z"/>
	<path class="st0" d="M39,21.8h-4.1v-9.4c-0.7,1.1-2.8,4.3-6.6,7c-1.1-1.6-1.6-2.1-3-3.1c2.7-1.5,6-4.4,8.2-8.2h-7.3V4.5h8.7V0.2
		l4,0.1c0.2,0,0.6,0,0.6,0.4c0,0.3-0.3,0.4-0.5,0.5v3.3h8.7v3.7h-7.4c2.4,3.9,5.6,6.8,8,7.9c-1.2,1-2.1,1.9-2.9,3.3
		c-2.4-1.6-4.8-4.5-6.4-6.8L39,21.8L39,21.8z"/>
	<path class="st0" d="M62,12.6v3h-3.7v1.3c0.5,0,1.9-0.2,3.7-0.5c-0.2,0.5-0.3,1-0.3,2.2c0,0.4,0,0.7,0,0.9
		c-2.3,0.6-7.7,1.4-9.4,1.6c-0.1,0.3-0.2,0.6-0.5,0.6c-0.2,0-0.3-0.1-0.3-0.4l-0.6-3.6c1.6-0.1,2.2-0.2,4.2-0.4v-1.7h-3.7v-3H55v-1
		h-3.4V0.7h10.2v10.9h-3.4v1C58.3,12.6,62,12.6,62,12.6z M55.3,4.9V3.5h-1v1.4H55.3z M54.3,7.4v1.4h1V7.4H54.3z M59,4.9V3.5h-1v1.4
		H59z M58.1,7.4v1.4h1V7.4H58.1z M71.8,8.4l1.5,1.3c-0.6,1.8-2.1,5.3-2.6,6.1c-0.8-0.5-1.9-0.9-2.3-1.1v4.2c0,1.5-0.5,2.9-4.4,2.9
		c-0.3,0-0.5,0-0.8,0c0-1.1-0.3-2.8-1.1-3.9c0.8,0.1,1.3,0.2,1.7,0.2c0.3,0,0.8,0,0.8-0.8v-5.8h-2.5V8.4h3.9c-1.6-1.1-2.7-1.7-3.2-2
		L64.9,4c0.2,0.1,1.1,0.5,1.6,0.8c0.4-0.4,0.7-0.7,0.9-1h-4.8V0.7h8.9L73,2.3c-1.5,2-2.8,3.2-3.7,4.1c0.8,0.5,1,0.6,1.3,0.9
		c-0.3,0.3-0.5,0.5-1,1.2H71.8z M68.2,13.9c0.8-1.3,1-1.8,1.2-2.4h-1.2V13.9z"/>
	<path class="st0" d="M97.5,9.7c0.1,0.1,0.2,0.2,0.2,0.4s-0.1,0.4-0.4,0.4c-0.1,0-0.2,0-0.4-0.1c-1.4,1.6-3.2,3.2-3.3,3.3
		c0.4,0.5,2.3,3,5.3,4.4c-1.1,0.8-2.5,2.2-3,3.3c-2.5-1.5-6.6-4.8-8.7-12c-0.9,0.9-1.6,1.5-2.1,1.8v5.3c2.7-0.6,3.4-0.8,4.6-1.1
		c-0.1,0.3-0.3,1.1-0.3,2.2c0,0.7,0.1,1,0.2,1.4c-1.6,0.6-7.9,2.2-10.2,2.6c-0.1,0.4-0.2,0.6-0.5,0.6c-0.3,0-0.3-0.3-0.4-0.4l-1-3.8
		c1.5-0.2,2.2-0.4,3.7-0.6v-3.5c-1.4,0.8-2.3,1.1-3,1.4c-0.6-1.3-1.5-2.5-2.5-3.4c4-1.1,6.9-3.3,8.6-4.9h-7.6V3.2h8.6V0.1l4.5,0.2
		c0.1,0,0.5,0,0.5,0.4c0,0.3-0.4,0.4-0.7,0.5v2.1h8.6v3.6h-7.6c0.3,1.8,1,3.3,1.1,3.5c1.1-1,2.1-2.1,2.6-3L97.5,9.7z"/>
</g>
</svg>
