<?xml version="1.0" encoding="utf-8"?>
<!-- Generator: Adobe Illustrator 23.1.1, SVG Export Plug-In . SVG Version: 6.00 Build 0)  -->
<svg version="1.1" id="レイヤー_1" xmlns="http://www.w3.org/2000/svg" xmlns:xlink="http://www.w3.org/1999/xlink" x="0px"
	 y="0px" viewBox="0 0 96 22" style="enable-background:new 0 0 96 22;" xml:space="preserve">
<style type="text/css">
	.st0{fill:none;stroke:#ffffff;stroke-width:0.2;stroke-miterlimit:10;}
</style>
<g>
	<path class="st0" d="M4,20.6v0.9H0.1V0.9h20.8v20.5h-4v-0.8H4z M16.9,17v-3.1c-0.8,0.7-1.7,0.7-2.1,0.7h-2.1
		c-2.6,0-2.7-1.7-2.7-2.7V4.4H9.5c0,0.3-0.2,0.4-0.5,0.5v0.7c0,3.3,0,7.2-3,10.6c-0.5-0.4-1.1-0.9-2-1.3V17L16.9,17L16.9,17z
		 M5.4,4.4H4v8.3c1.3-2.1,1.4-3.9,1.4-6.8C5.4,5.9,5.4,4.4,5.4,4.4z M13.7,10.2c0,0.3,0,0.8,0.6,0.8s0.6-0.2,0.8-2.3
		c0.7,0.6,1.1,0.8,1.8,1.1V4.4h-3.2V10.2z"/>
	<path class="st0" d="M33.4,3.3V0.2l4.3,0.2c0.2,0,0.4,0.1,0.4,0.3c0,0.3-0.3,0.4-0.5,0.5v2.2h8.6v3.6H36.1C36,8,36,8.4,36,8.7h7.8
		c0.1,3.4-0.1,8.2-0.9,10.2c-0.5,1.1-1.3,3.2-6.8,2.9c-0.1-1-0.5-2.6-1.7-4c0.9,0.1,2,0.3,2.7,0.3c1.7,0,2.4-0.5,2.5-5.8h-4.2
		c-1.2,4.2-4.2,7.6-8.1,9.6c-0.7-1.1-2-2.5-3.2-3.1c2-0.7,3.5-1.7,5-3.2c2.4-2.4,2.8-5.4,2.9-8.7h-7.1V3.3H33.4z"/>
	<path class="st0" d="M62.4,15.1h7.2v3.3h-7.2v3.3h-4.2v-3.3H51v-3.3h7.2v-1.2h-8.1v-3.2h4.2c-0.1-0.2-0.7-1.2-0.8-1.4L55,9h-5.4
		V5.8h8.7v-1h-6.8v-3h6.8V0.1l4.3,0.1c0.1,0,0.4,0.1,0.4,0.4c0,0.2-0.4,0.3-0.6,0.4v0.7h6.8v3h-6.8v1.1h8.7V9h-5.5L67,9.1
		c0.5,0.1,0.6,0.1,0.6,0.3c0,0.3-0.3,0.3-0.5,0.4c-0.3,0.5-0.4,0.7-0.5,0.9h4v3.2h-8.1C62.4,13.9,62.4,15.1,62.4,15.1z M57.9,9
		c0.4,0.8,0.5,0.9,0.8,1.7h3.5c0.1-0.2,0.4-0.9,0.8-1.7H57.9z"/>
	<path class="st0" d="M95.9,8.8v3.7h-8.6v5.8c0,1.9-0.4,3.7-6.4,3.4c-0.2-1.2-0.6-2.6-1.2-4c1.3,0.1,2.2,0.2,2.6,0.2
		c0.8,0,0.8-0.3,0.8-1.3v-4.1h-8.7V8.8h8.7V5.6l2.1,0.1c0.8-0.5,1.3-1,1.6-1.3H76.7V0.8h15.4l2.1,1.8c-2.1,2.3-6.1,5.5-6.8,6.1v0.1
		H95.9z"/>
</g>
</svg>
