<?xml version="1.0" encoding="utf-8"?>
<!-- Generator: Adobe Illustrator 23.1.1, SVG Export Plug-In . SVG Version: 6.00 Build 0)  -->
<svg version="1.1" id="レイヤー_1" xmlns="http://www.w3.org/2000/svg" xmlns:xlink="http://www.w3.org/1999/xlink" x="0px"
	 y="0px" viewBox="0 0 20.9 84.9" style="enable-background:new 0 0 20.9 84.9;" xml:space="preserve">
<style type="text/css">
	.st0{fill:none;stroke:#ffffff;stroke-width:0.2;stroke-linecap:round;stroke-linejoin:round;stroke-miterlimit:10;}
</style>
<g>
	<path class="st0" d="M19,11.3c0.2,0.1,0.2,0.2,0.2,0.3c0,0.2-0.1,0.2-0.7,0.4c-0.1,0.2-0.2,0.4-0.7,0.8c0.8,0.4,1.1,0.6,1.8,1.1
		c-0.3,0.3-0.6,0.6-1.1,1.4c0.9,0.9,1.6,1.3,2.2,1.4c-0.2,1.1-0.8,3.5-3.1,3.5c-1,0-4.6-1-5.3-8.5h-0.9V20H8v-8.4H6.6
		C6.5,13,6.2,16.9,3.2,20c-0.8-0.8-1.6-1.4-2.9-2c2.6-2.6,3-5.3,3.1-6.4H0.7V8.6h2.8l0-1.3c-0.8,0.2-1,0.3-1.4,0.4
		C1.6,6.3,1.2,5.8,0.5,5C1.8,5,3.9,4.6,5.4,3.8H1.5V1h14.2c0,0.5,0,0.6,0,0.9c1-0.8,1.7-1.5,1.9-1.7l2.3,1.6C19.9,1.8,20,1.9,20,2
		c0,0.1-0.1,0.3-0.3,0.3c-0.1,0-0.3-0.1-0.5-0.1c-0.6,0.7-1.1,1.2-1.3,1.3c1,0.5,1.5,0.8,2.3,1.4c-0.8,0.8-1.1,1.5-1.3,1.9
		c0.9,0.8,1.3,1,1.8,1.2c-0.4,1.8-0.7,2.8-2.1,3.1L19,11.3z M8,3.7H6.7L8,5.1V3.7z M6.7,8.6H8V6C7.9,6,7.7,5.9,7.6,5.8
		C7.3,5.9,7.2,6,6.8,6.2L6.7,8.6z M11.4,8.6h2.8c-1.1-1.6-1.4-3.9-1.5-4.9H8.3L11.4,4c0.3,0,0.6,0.2,0.6,0.4c0,0.2-0.2,0.3-0.6,0.4
		C11.4,4.8,11.4,8.6,11.4,8.6z M15.2,9.8c0,0.5,0,1.7,0,2.1c0.5-0.4,0.8-0.8,1.1-1.3C15.9,10.4,15.6,10.2,15.2,9.8z M15.2,12.2
		c0.1,0.6,0.4,1.8,0.4,2.1l0.9-1.2L15.2,12.2z M16.9,3.6c-0.4-0.4-0.8-0.7-1.2-1c0.1,1.1,0.2,1.9,0.3,2.3L16.9,3.6z M16,14.6
		c0.6,1.8,1.3,2.4,1.6,2.4c0.2,0,0.2-0.1,0.5-0.9C17.3,15.4,16.7,15,16,14.6z M17.8,7.9c0.3,0,0.4-0.8,0.4-1.1
		c-0.5-0.4-1.1-0.8-2.1-1.3C16.8,7.9,17.8,7.9,17.8,7.9z"/>
	<path class="st0" d="M18.9,27.5v0.8h-1.9v0.5h1.9v0.8h-1.9v0.5h2.9v1.2h-7.3c0,0.1-0.2,0.4-0.3,0.5h6.2v3.9H8.8v0.5h11.4v1H8.8v0.5
		h11.3c0,0,0.1,2.3-0.8,3.3c-0.7,0.7-1.7,0.7-3.6,0.7c0-0.3-0.1-0.6-0.2-1.1c-0.6,0.1-1.2,0.3-1.8,0.5c-0.3-1.1-0.5-1.5-0.7-1.9
		l0.6-0.2h-1.3c0.1,0.1,0.4,0.9,0.8,2c-0.3,0-1.3,0.2-2.1,0.5c-0.1-0.5-0.4-1.5-0.8-2.2l0.9-0.3H9.6c0.1,0.3,0.6,1.4,0.8,2.1
		c-0.9,0.1-1.7,0.4-2.5,0.7c-0.1-0.5-0.2-1-0.5-2.2c-0.1,0.2-0.3,0.2-0.5,0.2c-0.3,0.8-0.6,1.4-1.1,2.1C5,41.2,4.5,41,3.6,40.7
		c0.6-0.8,1-1.5,1.3-2.5l0.7,0.4v-6.7H9c0.2-0.5,0.3-0.7,0.4-1L10,31v-1.3c-0.2-0.4-1-1.3-1.2-1.5v3.2H6v-1.8
		c-0.2,0.2-0.3,0.3-0.6,0.5c-0.1-0.3-0.2-0.5-0.5-1.1v1.7c0,2.1,0,7.2-1.9,10.9C2.1,41,1.2,40.4,0.1,40c1.4-2.5,1.6-6.4,1.6-9.1
		v-7.7h7.3v-1l3.9,0.1c0.1,0,0.3,0,0.3,0.2c0,0.1-0.2,0.3-0.6,0.4v0.3h7.4v2h-2.1c0.1,0.2-0.1,0.3-0.5,0.3c0,0.1-0.1,0.3-0.2,0.4
		h2.5V27h-2.9v0.5C17.1,27.5,18.9,27.5,18.9,27.5z M4.9,27.1c0.7-0.6,1.4-1.3,1.9-1.9H4.9V27.1z M8.5,39H6.4L7,39.3
		c0.1,0.1,0.2,0.1,0.2,0.2l0-0.1L8.5,39z M8.8,27.5c1.1-1,1.8-2,2-2.3H9.3l0.4,0.3c0.1,0.1,0.2,0.2,0.2,0.3c0,0.1-0.1,0.2-0.3,0.2
		c-0.1,0-0.2,0-0.3,0c-0.2,0.3-0.4,0.5-0.6,0.8L8.8,27.5L8.8,27.5z M15.2,33.4v-0.5H8.8v0.5H15.2z M8.8,34.3v0.5h6.4v-0.5H8.8z
		 M14.3,27.5V27h-1.5v0.5H14.3z M14.3,28.8v-0.5h-1.5v0.5H14.3z M12.8,29.6v0.5h1.5v-0.5H12.8z M14.1,25.2c0,0.2-0.2,0.2-0.5,0.3
		c-0.1,0.1-0.2,0.3-0.2,0.4h1c0.2-0.2,0.3-0.5,0.4-0.7L14.1,25.2L14.1,25.2z M15,39c0.1,0.2,0.1,0.3,0.2,0.4c0.3,0.1,0.7,0.2,1,0.2
		c0.5,0,0.6-0.1,0.6-0.6C16.8,39,15,39,15,39z"/>
	<path class="st0" d="M12.3,55.1h4.3v3h-4.3v1.7h7.6v3.1H1.3v-3.1h7.5v-1.7h-4v-3h4v-1.6H4.6v-1c-1.3,0.8-1.6,1-2,1.2
		c-0.4-0.9-1.6-2.2-2.3-2.8c3.4-1.3,7-4.4,8.5-7.2l3.7,0.5c0.1,0,0.4,0.1,0.4,0.3c0,0.2-0.3,0.4-0.5,0.5c0.7,1,3.7,3.8,8.4,5.6
		c-0.9,0.9-1.6,2.1-2,3.1c-0.4-0.2-0.9-0.4-2.1-1v0.9h-4.5V55.1z M13.6,50.5c-1.8-1.3-2.8-2.4-3.3-2.9c-0.5,0.6-1,1.2-2.9,2.9H13.6z
		"/>
	<path class="st0" d="M0.1,82.9c0.8-1.3,2.5-4.6,3-7C3.8,76.6,5,77.6,6,77.9c-0.4,1.3-1.2,3.4-2.5,6.2c0,0.2,0.1,0.3,0.1,0.4
		c0,0.2-0.1,0.2-0.2,0.2c-0.1,0-0.3-0.1-0.4-0.2L0.1,82.9z M1.9,70.3c1.3,0.8,2.5,1.6,3.7,2.5c-0.2,0.3-1.2,1.7-1.8,2.7
		c-1-0.8-2.5-1.8-3.7-2.4L1.9,70.3z M3.3,65.3C4.6,66,5.9,67,6.8,67.8c-0.5,0.6-1.8,2.3-2.1,2.8c-0.8-0.8-2.2-2-3.4-2.8L3.3,65.3z
		 M16.7,76.8c1.5,1.9,3.1,4.9,3.8,6.4c-1.5,0.7-2,1-3.2,1.6c-0.2-0.5-0.4-1-0.8-1.9c-1.3,0.3-3.2,0.7-5.3,1
		c-0.6,0.1-3.2,0.4-3.7,0.4c-0.1,0.2-0.2,0.4-0.5,0.4s-0.3-0.3-0.3-0.4L6,80.9c0.2,0,0.4,0,0.7,0c0.2,0,0.6,0,1.5-0.1
		c0.7-1.4,1.6-3.5,1.9-4.5h-4v-3.2h5.1v-1.8H7v-3.1h4.2v-2.9l3.6,0.1c0.2,0,0.5,0.1,0.5,0.3c0,0.2-0.2,0.3-0.5,0.4v2h4.7v3.1h-4.7
		v1.8h5.5v3.2h-5.5c0,0.4-0.7,0.4-0.9,0.4c-0.6,1.6-1.1,2.4-1.7,3.7c1-0.1,2-0.2,3-0.4c-0.7-1.2-0.9-1.4-1.3-1.8L16.7,76.8z"/>
</g>
</svg>
