<?xml version="1.0" encoding="utf-8"?>
<!-- Generator: Adobe Illustrator 23.1.1, SVG Export Plug-In . SVG Version: 6.00 Build 0)  -->
<svg version="1.1" id="レイヤー_1" xmlns="http://www.w3.org/2000/svg" xmlns:xlink="http://www.w3.org/1999/xlink" x="0px"
	 y="0px" viewBox="0 0 21 84.8" style="enable-background:new 0 0 21 84.8;" xml:space="preserve">
<style type="text/css">
	.st0{fill:none;stroke:#ffffff;stroke-width:0.2;stroke-linecap:round;stroke-linejoin:round;stroke-miterlimit:10;}
</style>
<g>
	<path class="st0" d="M7.2,13.6v-3.1h3.5V8.8H6.6V5.7h4.1V4H7.5V1.9c-0.1,0-0.2,0-0.3,0C6.8,3.2,6.5,3.9,6,5.1
		c0.5,0.2,0.6,0.2,0.6,0.4S6.3,5.8,6.1,5.9v13.9H2.5v-8.6c-0.3,0.3-0.4,0.4-0.6,0.7c-0.4-1.2-1.2-2.6-1.8-3.2
		c1.8-2.3,3.4-5.8,4.1-8.5l3.4,1.1V0.9h12v4.7h0.7v3.2h-0.7v5.6H16v-0.8h-2c-0.8,3.8-3.4,5.7-4.4,6.5c-0.7-1-1.8-1.9-2.8-2.5
		c2.4-1.5,3.2-2.7,3.6-4L7.2,13.6L7.2,13.6z M14.2,5.7H16V4h-1.8V5.7z M14.2,10.5H16V8.8h-1.8V10.5z"/>
	<path class="st0" d="M8.3,38.5c0,1.7-0.1,2.8-3.3,2.7c-0.1-1-0.4-2.1-0.8-2.8c-0.3,1.5-0.5,2.1-0.9,2.9c-0.9-0.5-2.1-1-2.8-1.2
		c0.9-2.1,1.2-3.5,1.2-7.7v-5.8h3.8v-0.8H0.9v-2.6h4.7V22l3.6,0.1c0.2,0,0.4,0,0.4,0.2c0,0.3-0.3,0.4-0.6,0.4v0.4h3.1v-1.1l3.5,0.1
		c0.3,0,0.4,0,0.4,0.2c0,0.3-0.3,0.4-0.5,0.5v0.3h4.8v2.6h-4.8v0.6h-1.8l1.4,0.3c0.2,0,0.3,0.1,0.3,0.3c0,0.2-0.2,0.3-0.5,0.4
		c0,0.3-0.1,0.4-0.1,0.7h2l-1.4-0.5c0.4-0.5,0.8-1.1,1-1.6l2.6,0.8c0.1,0,0.4,0.1,0.4,0.3s-0.2,0.3-0.6,0.3
		c-0.3,0.5-0.4,0.6-0.4,0.8h1v2h-1.9c0.1,0.2,0.1,0.3,0.4,0.8h2.4v2H19c0.9,0.9,1.5,1.2,1.9,1.4C20.4,34.7,20,35,19,36.5
		c-0.2-0.2-0.3-0.3-0.7-0.6c-0.1,0.1-0.6,0.7-1.3,1.2c0.9,0.5,2.2,1.3,2.9,2.1c-0.8,0.7-1.5,1.6-1.9,2.1C17,40,15.7,39.2,15.4,39
		v0.4c0,1.9-1.2,2.1-3.7,2c0-0.8-0.2-1.2-0.5-2.1c-0.6,0.3-1,0.7-1.5,1c0,0.2-0.1,0.5-0.4,0.5c-0.2,0-0.2-0.2-0.3-0.4L8.3,38.5z
		 M5.6,36H4.5c-0.1,0.9-0.1,1.2-0.2,2c0.2,0,0.8,0.1,1,0.1c0.4,0,0.4-0.2,0.4-0.6L5.6,36L5.6,36z M5.6,29h-1v1.3h1L5.6,29L5.6,29z
		 M5.6,32.5h-1v1.3h1L5.6,32.5L5.6,32.5z M8.7,33v-2h2.2c0.2-0.4,0.3-0.6,0.4-0.8H9.1v-2h0.6c-0.3-0.4-0.4-0.6-0.9-1l2-1.2
		c0.6,0.6,0.9,1,1.3,1.5c-0.7,0.5-0.8,0.5-1.1,0.8h1c0.1-0.4,0.2-0.9,0.3-1.7h-0.1v-0.6H9.1v0.9H8.3V34c0.8-0.5,1.1-0.8,1.3-1
		L8.7,33L8.7,33z M8.3,38.1c1.8-0.6,2.2-0.7,3.8-1.6c0,0.1,0,0.2,0.1,0.8c0.1,0.5,0.2,0.8,0.3,1.1c-0.2,0.2-0.3,0.2-0.9,0.6
		c0.9,0,1-0.1,1-0.5v-5.2l2.9,0.2c0.2,0,0.4,0,0.4,0.3c0,0.2-0.3,0.4-0.5,0.4v1c0.2-0.2,0.8-0.7,1.2-1.2c-0.2-0.2-0.4-0.5-0.6-1
		h-3.2c-0.2,0.4-0.5,0.8-1,1.4c0.6,0.8,0.7,0.9,0.9,1.1c-0.6,0.5-1.2,0.9-2.2,1.8c-0.1-0.2-0.3-0.4-0.7-1c-0.3,0.2-0.4,0.3-0.6,0.4
		c-0.1-0.5-0.2-0.8-0.9-1.8L8.3,38.1L8.3,38.1z M14.1,30.1c-0.1,0.2-0.2,0.4-0.3,0.8h1.4c-0.2-0.5-0.2-0.6-0.2-0.8
		C14.9,30.1,14.1,30.1,14.1,30.1z M16.1,36.6c0.2,0.1,0.4,0.2,0.8,0.4c-0.5-0.8-0.6-0.9-1.5-1.6v2.3L16.1,36.6z"/>
	<path class="st0" d="M14.6,59.5h5.7v3H0.9v-3h5.6V57H1.9v-8.2h4.7V47H1.4v-3h18.3v3h-5.2v1.8h4.7V57h-4.7V59.5z M6.5,51.6H5.2v2.6
		h1.3V51.6z M9.9,48.8h1.4V47H9.9V48.8z M11.2,51.6H9.9v2.6h1.4V51.6z M11.2,57H9.9v2.6h1.4V57z M14.6,54.1H16v-2.6h-1.4V54.1z"/>
	<path class="st0" d="M20.4,75.9c0.1,0.1,0.3,0.2,0.3,0.4c0,0.3-0.5,0.3-0.6,0.3c-3.1,6.4-8.9,7.8-10.7,8.1
		c-0.2-0.8-1.2-2.1-2.1-2.8c2.7-0.4,5.2-1.5,7.2-3.2c-0.5,0.1-0.8,0.2-2.7,0.2c0-0.4-0.1-1.6-0.9-3.4c-0.6-0.4-0.8-0.5-1.3-0.7
		c0.1,0.5,0.2,0.8,0.3,1.3c-0.8,0.2-1.7,0.5-2.5,0.9c-0.1-0.5-0.1-0.6-0.2-0.8c-0.5,0.1-0.6,0.1-0.8,0.1v8.2H3.4v-6.4
		c-0.1,0.1-0.2,0.1-0.2,0.1C3,80.4,3,81.5,2.5,83.4c-0.8-0.3-1.4-0.5-2.2-0.7C0.9,80.9,1,78.2,1,77.3l2.2,0.2c0.1,0,0.1,0,0.2,0
		v-1.1c-1.1,0.1-1.2,0.1-1.7,0.1c0,0.2-0.1,0.4-0.2,0.4c0,0.1-0.2,0.2-0.2,0.2c-0.1,0-0.2-0.1-0.3-0.4l-0.4-3h1
		c0.5-0.5,1.1-1.2,1.5-1.6c-0.3-0.4-1.2-1.5-2.7-2.9l1.9-2.6c0.3,0.2,0.3,0.3,0.6,0.6c0.8-1.3,1.1-2,1.4-2.6L7,65.9
		c0.1,0,0.3,0.2,0.3,0.3c0,0.4-0.5,0.3-0.7,0.3c-0.5,1.1-1,1.8-1.9,2.9c0,0.1,0.3,0.4,0.4,0.4c1-1.3,1.3-1.8,1.6-2.3l2.8,1.6
		c0.1,0.1,0.2,0.2,0.2,0.2c0,0.3-0.3,0.3-0.5,0.3c-0.1,0-0.2,0-0.3,0c-0.9,1.2-2.1,2.4-2.4,2.7l1.8-0.7c0.1,0.3,0.2,0.5,0.4,0.8
		c0.6-1.3,1.1-2.7,1.3-4.1l2.8,0.7c0.1,0,0.1,0,0.2,0v-4.1l3.3,0.1c0.1,0,0.4,0,0.4,0.3c0,0.3-0.3,0.4-0.5,0.4v3.3l2-1
		c0.9,1.3,2.1,3.8,2.5,5c-0.6,0.3-1.6,0.8-2.6,1.6L20.4,75.9z M5.3,73.8c0.3,0,0.7,0,1.6-0.1C6.7,73,6.6,73,6.5,72.6L5.3,73.8z
		 M9,77c0,1.5,0.4,2.9,0.8,3.9c-1.1,0.3-1.6,0.4-2.4,0.8c-0.3-1.3-0.4-2.2-0.6-4.1L9,77z M13,69.8c-0.1,0-0.1,0-0.2,0.1
		c-0.3,1.3-0.9,3.7-1.8,5.6c0.7,0.2,1.3,0.2,1.3,0.2c0.7,0,0.7-0.3,0.7-0.8V69.8z M17.9,74.8c-0.4-1.6-0.9-2.9-1.6-4.2v5.3
		c0,0.3,0,0.5,0,0.8c0.2-0.4,0.5-0.9,1-2.2L17.9,74.8z"/>
</g>
</svg>
