<?xml version="1.0" encoding="utf-8"?>
<!-- Generator: Adobe Illustrator 23.1.1, SVG Export Plug-In . SVG Version: 6.00 Build 0)  -->
<svg version="1.1" id="レイヤー_1" xmlns="http://www.w3.org/2000/svg" xmlns:xlink="http://www.w3.org/1999/xlink" x="0px"
	 y="0px" viewBox="0 0 20.7 84.3" style="enable-background:new 0 0 20.7 84.3;" xml:space="preserve">
<style type="text/css">
	.st0{fill:none;stroke:#ffffff;stroke-width:0.2;stroke-linecap:round;stroke-linejoin:round;stroke-miterlimit:10;}
</style>
<g>
	<path class="st0" d="M20.1,1.4v5.4h-3.6V4.2H4.4v2.7H0.8V1.4h7.7V0.1l4,0.1c0.1,0,0.4,0,0.4,0.2c0,0.3-0.4,0.4-0.6,0.5v0.6
		C12.4,1.4,20.1,1.4,20.1,1.4z M18.1,12.1v7.3h-3.6V19H6.3v0.4H2.7v-7.3h4.8C7.8,11.4,7.8,11.4,8,11H4.7V4.9h11.4v6h-4.2
		c-0.1,0.2-0.3,0.7-0.5,1.1L18.1,12.1L18.1,12.1z M14.5,16.1v-1.3H6.3v1.3H14.5z M8,7.4v1.2h4.7V7.4H8z"/>
	<path class="st0" d="M1.7,26.5c0.6,0.3,2.2,1.2,3.4,2.2c-0.6,0.9-1,1.6-1.6,3c-0.6-0.5-1.7-1.5-3.4-2.3L1.7,26.5z M0.2,39.2
		c1.5-2.5,2.6-5.5,3.1-7.3c0.5,0.5,1.2,1.2,2.7,2.1c-0.8,2.3-1.2,3.2-2.5,6.1c0.2,0.2,0.4,0.4,0.4,0.6c0,0.2-0.1,0.2-0.3,0.2
		c-0.1,0-0.2,0-0.2,0L0.2,39.2z M3.1,21.6c1,0.5,2.6,1.5,3.4,2.2c-0.7,0.9-1.2,1.5-1.9,2.8c-1-0.9-2.6-2-3.4-2.4L3.1,21.6z
		 M20.1,26.5v2.5h-1v3.2h-4.9V33h5v2.4h-5v0.7h5.8v2.8h-5.8V41h-3.5v-2.1H5.9v-2.8h4.9v-0.7H6.6V33h4.2v-0.7H7.1V30h3.8v-0.9H6v-2.6
		h4.8v-0.8H7.1v-2.4h3.8v-1.6l3.7,0.1c0.1,0,0.3,0,0.3,0.2c0,0.3-0.4,0.4-0.6,0.5v0.8h4.9v3.2L20.1,26.5L20.1,26.5z M15.8,26.5v-0.8
		h-1.5v0.8H15.8z M14.3,29.1V30h1.5v-0.9H14.3z"/>
	<path class="st0" d="M0.8,51.6v-3.5h7.8v-4.8l3.9,0.2c0.1,0,0.5,0,0.5,0.3c0,0.3-0.3,0.4-0.6,0.4V48h7.6v3.5h-7.4
		c2.3,5.2,5.6,7,7.8,8c-1.1,0.9-1.9,2-2.6,3.3c-2.9-1.4-6-4.4-7.5-7.2c-1.8,3.2-4.6,5.7-8,7.2c-0.5-1.1-0.9-1.7-2.4-3.3
		c4.1-1.5,7-4.2,8.1-8L0.8,51.6L0.8,51.6z"/>
	<path class="st0" d="M6.7,78.6h2.6v2.5H6.7v3h-3v-3H0.8v-2.5h2.8v-0.8H1.1v-7.7h2.5v-0.8H0.9v-2.6h2.8v-1.9L6.8,65
		c0.1,0,0.4,0,0.4,0.2S7,65.6,6.7,65.7v1.1h2.6v2.6H6.7v0.8h2.5v7.7H6.7V78.6z M3.9,73.2v-0.9H3.2v0.9H3.9z M3.2,74.8v0.9h0.8v-0.9
		H3.2z M7.2,73.2v-0.9H6.4v0.9H7.2z M6.4,74.8v0.9h0.8v-0.9H6.4z M17.8,64.6c0.3,0.2,1.4,0.8,2.2,1.7c-0.3,0.2-0.5,0.4-1,0.9h1v2.6
		h-4v0.9h3.6v10.8c0,1.9-0.6,2.5-3.1,2.6c0-0.5-0.1-1.4-0.6-2.5v2.1h-2.5v-4h-1v4.4H9.7V70.8h3.5v-0.9H9.6v-2.6h3.6v-2.4l2.9,0.1
		c0.1,0,0.4,0,0.4,0.3c0,0.2-0.4,0.4-0.5,0.4v1.6h1.3c-0.2-0.2-0.5-0.4-1.1-0.9L17.8,64.6z M13.3,74.3v-1h-1v1H13.3z M13.3,77.5v-1
		h-1v1H13.3z M16.9,74.3v-1h-1v1H16.9z M16.9,77.5v-1h-1v1H16.9z M15.9,79.8V81c0.1,0,0.5,0.1,0.5,0.1c0.5,0,0.5-0.2,0.5-0.7v-0.6
		H15.9z"/>
</g>
</svg>
