<?xml version="1.0" encoding="utf-8"?>
<!-- Generator: Adobe Illustrator 23.1.1, SVG Export Plug-In . SVG Version: 6.00 Build 0)  -->
<svg version="1.1" id="レイヤー_1" xmlns="http://www.w3.org/2000/svg" xmlns:xlink="http://www.w3.org/1999/xlink" x="0px"
	 y="0px" viewBox="0 0 21 84.6" style="enable-background:new 0 0 21 84.6;" xml:space="preserve">
<style type="text/css">
	.st0{fill:none;stroke:#ffffff;stroke-width:0.2;stroke-linecap:round;stroke-linejoin:round;stroke-miterlimit:10;}
</style>
<g>
	<path class="st0" d="M17.4,12.9v0.6c0,0.2,0,0.5,0.3,0.5s0.4-0.5,0.4-0.8c0.6,0.3,1.1,0.5,2.1,0.6c-0.1,0.6-0.3,2-1.9,2h-1.8
		c-0.5,0-1.5-0.2-1.5-1.4v-1.5h-1.9l1.4,0.3c0.1,0,0.3,0.1,0.3,0.2c0,0.2-0.2,0.2-0.4,0.3c-0.2,1-0.4,1.6-1,2.5h6.5v2.5h-8.6v0.6h-3
		v-6.5H7.8v-1.2c-0.1,0.2-0.6,1.2-0.6,1.4c-0.4-0.7-0.5-0.9-0.7-1.2v7.5H3.1v-6.7c-0.4,1.1-0.8,1.9-1,2.4c-0.3-0.6-1.5-2.2-2-2.6
		C1.6,10.8,2.5,8.2,3,6.7H0.8v-3h2.3V0.1l2.9,0.1c0.9,0,1,0,1,0.3c0,0.3-0.4,0.4-0.6,0.4v2.7H8V1.3h1.3V0.1l3.1,0.1
		c0.4,0,0.9,0,0.9,0.2c0,0.2-0.4,0.4-0.8,0.5v0.4h3V0.1l2.9,0.1c0.4,0,0.8,0,0.8,0.3c0,0.2-0.3,0.4-0.6,0.5v0.4H20v2.5h-1.4v6.5h1.6
		v2.5L17.4,12.9L17.4,12.9z M9.3,3.8H8v2.8H6.6c0.1,0.2,1,2.1,2.4,3.5c-0.1,0.1-0.1,0.1-0.1,0.2h0.5L9.3,3.8L9.3,3.8z M11.3,12.9v2
		c0.4-0.6,0.6-1.3,0.8-2H11.3z M11.3,15.4v0.9h2.1C12.9,16,12,15.6,11.3,15.4z M15.5,3.8h-3v0.8h3V3.8z M15.5,6.7h-3v0.8h3V6.7z
		 M15.5,9.5h-3v0.9h3V9.5z"/>
	<path class="st0" d="M12.4,41H8.7v-8.4c-0.6,1-2.5,3.9-5.9,6.3c-1-1.4-1.4-1.8-2.7-2.8c2.4-1.3,5.3-4,7.3-7.3H0.9v-3.3h7.8v-3.9
		l3.6,0.1c0.2,0,0.5,0,0.5,0.3c0,0.3-0.3,0.4-0.5,0.5v3h7.8v3.3h-6.6c2.1,3.5,5,6.1,7.2,7.1c-1,0.9-1.9,1.7-2.6,3
		c-2.2-1.5-4.3-4-5.7-6.1C12.4,32.8,12.4,41,12.4,41z"/>
	<path class="st0" d="M10.6,54.3V57H7.3v1.2c0.5,0,1.7-0.2,3.3-0.5c-0.2,0.4-0.3,0.9-0.3,2c0,0.4,0,0.6,0,0.8
		c-2,0.5-6.9,1.2-8.5,1.4c-0.1,0.3-0.2,0.6-0.4,0.6c-0.2,0-0.3-0.1-0.3-0.3l-0.6-3.2c1.4-0.1,1.9-0.2,3.8-0.4V57H1v-2.7h3.3v-0.9h-3
		v-9.8h9.1v9.8H7.3v0.9H10.6z M4.5,47.4v-1.2H3.7v1.2H4.5z M3.7,49.6v1.2h0.9v-1.2H3.7z M7.9,47.4v-1.2H7.1v1.2H7.9z M7.1,49.6v1.2
		h0.9v-1.2H7.1z M19.4,50.5l1.4,1.2c-0.5,1.6-1.9,4.8-2.3,5.5c-0.7-0.4-1.7-0.8-2-0.9V60c0,1.4-0.4,2.6-4,2.6c-0.2,0-0.4,0-0.7,0
		c0-1-0.2-2.5-1-3.5c0.7,0.1,1.2,0.2,1.6,0.2c0.3,0,0.7,0,0.7-0.7v-5.2h-2.3v-2.8h3.6c-1.4-1-2.4-1.5-2.9-1.8l1.7-2.1
		c0.1,0.1,0.9,0.5,1.4,0.7c0.4-0.4,0.6-0.7,0.8-0.9h-4.3v-2.8h8l1.3,1.5c-1.4,1.8-2.5,2.9-3.3,3.7c0.7,0.4,0.9,0.5,1.1,0.8
		c-0.3,0.3-0.4,0.5-0.9,1L19.4,50.5L19.4,50.5z M16.1,55.5c0.7-1.2,0.9-1.6,1-2.2h-1V55.5z"/>
	<path class="st0" d="M19.7,73.3c0.1,0.1,0.2,0.2,0.2,0.4S19.8,74,19.5,74c-0.1,0-0.1,0-0.4-0.1c-1.3,1.4-2.9,2.9-3,2.9
		c0.3,0.4,2.1,2.7,4.7,3.9c-1,0.7-2.2,1.9-2.7,2.9c-2.2-1.4-5.9-4.3-7.8-10.8c-0.8,0.8-1.4,1.3-1.9,1.6v4.7c2.4-0.5,3-0.7,4.1-1
		c-0.1,0.3-0.3,1-0.3,2c0,0.6,0.1,0.9,0.2,1.3c-1.4,0.5-7.1,1.9-9.1,2.3c-0.1,0.4-0.2,0.6-0.4,0.6c-0.3,0-0.3-0.2-0.4-0.4l-0.9-3.4
		c1.3-0.2,2-0.3,3.3-0.6v-3.2c-1.3,0.7-2,1-2.7,1.3c-0.5-1.2-1.3-2.2-2.3-3.1c3.6-1,6.2-3,7.7-4.4H0.9v-3.2h7.7v-2.8l4,0.2
		c0.1,0,0.4,0,0.4,0.3c0,0.3-0.3,0.4-0.6,0.4v1.9h7.7v3.2h-6.8c0.3,1.6,0.9,3,0.9,3.1c0.9-0.9,1.9-1.8,2.3-2.7L19.7,73.3z"/>
</g>
</svg>
