<?xml version="1.0" encoding="utf-8"?>
<!-- Generator: Adobe Illustrator 23.1.1, SVG Export Plug-In . SVG Version: 6.00 Build 0)  -->
<svg version="1.1" id="レイヤー_1" xmlns="http://www.w3.org/2000/svg" xmlns:xlink="http://www.w3.org/1999/xlink" x="0px"
	 y="0px" viewBox="0 0 20.2 83.6" style="enable-background:new 0 0 20.2 83.6;" xml:space="preserve">
<style type="text/css">
	.st0{fill:none;stroke:#ffffff;stroke-width:0.2;stroke-linecap:round;stroke-linejoin:round;stroke-miterlimit:10;}
</style>
<g>
	<path class="st0" d="M4.5,17.8v0.8H1.1V0.1h18.6v18.4h-3.5v-0.7H4.5z M16.2,14.5v-2.8c-0.7,0.6-1.5,0.6-1.9,0.6h-1.9
		c-2.3,0-2.4-1.5-2.4-2.4V3.3H9.5c0,0.3-0.1,0.4-0.4,0.4v0.6c0,3,0,6.5-2.7,9.5c-0.4-0.3-0.9-0.8-1.8-1.2v1.9H16.2z M5.8,3.3H4.5
		v7.4c1.2-1.9,1.3-3.5,1.3-6.1C5.8,4.6,5.8,3.3,5.8,3.3z M13.3,8.5c0,0.2,0,0.7,0.6,0.7s0.6-0.2,0.8-2.1c0.6,0.6,1,0.7,1.6,0.9V3.3
		h-2.9V8.5z"/>
	<path class="st0" d="M8.5,23.8V21l3.9,0.1c0.2,0,0.4,0.1,0.4,0.3c0,0.2-0.3,0.4-0.5,0.5v1.9h7.7v3.3h-9.1c0,0.9-0.1,1.3-0.1,1.5h7
		c0.1,3-0.1,7.4-0.8,9.1c-0.4,1-1.2,2.8-6.1,2.6c-0.1-0.9-0.5-2.3-1.5-3.6c0.8,0.1,1.8,0.3,2.4,0.3c1.5,0,2.2-0.4,2.2-5.2h-3.8
		c-1.1,3.8-3.8,6.8-7.3,8.7c-0.7-1-1.8-2.2-2.9-2.8c1.8-0.6,3.2-1.5,4.5-2.8c2.1-2.2,2.5-4.9,2.6-7.8H0.8v-3.3L8.5,23.8L8.5,23.8z"
		/>
	<path class="st0" d="M12.2,56h6.5v3h-6.5v3H8.5v-3H2.1v-3h6.5v-1H1.2V52H5c-0.1-0.2-0.6-1.1-0.7-1.3l1.3-0.2H0.7v-2.8h7.8v-0.9H2.4
		V44h6.1v-1.5l3.9,0.1c0.1,0,0.4,0.1,0.4,0.3c0,0.2-0.3,0.3-0.6,0.4V44h6.1v2.7h-6.1v0.9H20v2.8h-4.9l1.2,0.2
		c0.4,0.1,0.5,0.1,0.5,0.2c0,0.2-0.3,0.3-0.5,0.3c-0.2,0.5-0.3,0.6-0.4,0.8h3.6v2.9h-7.3C12.2,54.9,12.2,56,12.2,56z M8.2,50.5
		c0.4,0.7,0.4,0.8,0.7,1.5h3.2c0.1-0.2,0.4-0.8,0.7-1.5H8.2z"/>
	<path class="st0" d="M20.1,71.9v3.3h-7.7v5.2c0,1.7-0.4,3.3-5.7,3.1c-0.2-1.1-0.6-2.4-1.1-3.6C6.7,80,7.5,80,7.8,80
		c0.7,0,0.7-0.3,0.7-1.1v-3.7H0.7v-3.3h7.8V69l1.9,0.1c0.7-0.5,1.1-0.9,1.5-1.2H2.7v-3.3h13.9l1.9,1.6c-1.9,2.1-5.5,4.9-6.1,5.5v0.1
		L20.1,71.9L20.1,71.9z"/>
</g>
</svg>
