<?xml version="1.0" encoding="utf-8"?>
<!-- Generator: Adobe Illustrator 23.1.1, SVG Export Plug-In . SVG Version: 6.00 Build 0)  -->
<svg version="1.1" id="レイヤー_1" xmlns="http://www.w3.org/2000/svg" xmlns:xlink="http://www.w3.org/1999/xlink" x="0px"
	 y="0px" viewBox="0 0 20.6 84.4" style="enable-background:new 0 0 20.6 84.4;" xml:space="preserve">
<style type="text/css">
	.st0{fill:none;stroke:#ffffff;stroke-width:0.2;stroke-linecap:round;stroke-linejoin:round;stroke-miterlimit:10;}
</style>
<g>
	<path class="st0" d="M5.6,7.9L9,8c0.2,0,0.3,0.1,0.3,0.2c0,0.2-0.1,0.3-0.5,0.5v1.1h2.3v3.1H8.9v1.9c1.5-0.2,2.6-0.5,3.3-0.6
		c-0.2,1-0.3,1.9-0.2,3.2c-4.8,1.1-8.1,1.5-10.1,1.7c-0.1,0.3-0.2,0.5-0.4,0.5c-0.2,0-0.3-0.1-0.3-0.3l-0.6-3.5
		c0.7-0.1,0.9-0.1,1.3-0.1V9L5,9.2c0.2,0,0.4,0.1,0.4,0.3c0,0.2-0.2,0.3-0.4,0.4v5.5c0.1,0,0.6-0.1,0.7-0.1V7.9z M0.8,7.5V4.6h10.1
		c0-0.3-0.2-3-0.2-4.5l3.7,0.1c0.1,0,0.4,0,0.4,0.3c0,0.3-0.3,0.4-0.5,0.5c0,1.1,0,1.3,0.1,3.6h2.3c-0.8-1.3-1.7-2.3-2-2.7l2.4-1.8
		c1.2,1.1,1.9,2.1,2.5,3.1c-0.5,0.3-1.1,0.7-2,1.5h2.7v2.9h-5.6c0.9,6.5,2.5,7.2,2.5,7.2c0.2,0,0.4-1.1,0.5-2.1
		c1.1,0.9,1.7,1.2,2.9,1.7c-0.6,4.7-2,5.1-2.9,5.1c-1.5,0-2.9-1.3-4.3-3.7c-1.7-3.1-2.1-7.3-2.2-8.2L0.8,7.5L0.8,7.5z M10,1.1v2.8
		H1.7V1.1H10z"/>
	<path class="st0" d="M5,40v0.8H1.4V22.7h18.1v18.1h-3.6V40H5z M8.7,29.8v-3.9H5v3.9H8.7z M8.7,36.8v-3.9H5v3.9H8.7z M15.9,29.8
		v-3.9h-3.7v3.9H15.9z M12.2,32.9v3.9h3.7v-3.9H12.2z"/>
	<path class="st0" d="M12.2,52.9H8.7v-1.6c-0.2,0.3-0.8,0.9-2.2,1.9h7.6l0.9,0.8c-0.1,0.3-0.5,1.4-0.5,1.6h4.1
		c-0.2,5.4-0.4,7.1-5,7.1c-0.4,0-0.7,0-1-0.1c-0.1-1-0.3-1.8-1.1-3.2c1.1,0.2,1.8,0.2,2,0.2c1.3,0,1.3-0.2,1.4-1.3h-1.4
		c-0.2,0.5-0.2,0.6-0.3,0.9c-1.2-0.4-3-0.8-3.3-0.8c0.2-0.3,0.7-1.4,1-2.3H9.6C9.2,58,8.4,61.3,2.9,63c-0.5-1.1-0.9-1.5-2.2-3
		c4.1-0.4,4.9-2.8,5.1-3.8H4.1v-1.4c-0.9,0.5-1.4,0.7-1.8,0.9c-0.5-1-1.4-2.1-2.1-2.9c2.8-0.8,4.7-2,5.7-2.8h-5v-2.8h7.7v-0.7
		c-0.9,0-2.8,0.1-3.5,0.1c-0.8,0-1.5,0-2.2-0.1c-0.2-0.9-0.5-1.6-1.1-2.8c1.4,0.2,3,0.2,4.8,0.2c1.9,0,6.7,0,10-0.8l1.8,2.5
		c0,0.1,0.1,0.2,0.1,0.2c0,0.2-0.1,0.2-0.2,0.2c-0.2,0-0.4-0.1-0.6-0.2c-2.5,0.4-4.6,0.5-5.4,0.6v0.7H20v2.8h-5
		c1.9,1.5,3.5,2,5.6,2.5c-0.9,1-1.3,1.7-1.9,3c-2.9-1.2-5.1-3.1-6.4-4.5L12.2,52.9L12.2,52.9z"/>
	<path class="st0" d="M14,69.4v2.4H7.6v-0.7H6.1v0.1c0.6,1.3,1.2,2.1,1.5,2.4v-1.3h6.4v1.1l1.8-0.9c0.2,0.5,0.3,0.7,0.5,1.2v-2.2
		h-1.7v-3h1.7V65l3.2,0.2c0.2,0,0.4,0,0.4,0.2c0,0.2-0.3,0.4-0.4,0.4v2.8h0.6v3h-0.6v9.8c0,2.6-1.5,2.8-4.2,2.8
		c-0.1-1.2-0.2-1.9-0.8-3.2c0,0.5,0,0.8,0,1.2c-0.8,0.2-3.2,0.7-6.6,1.2C7.8,83.8,7.7,84,7.5,84c-0.2,0-0.2-0.2-0.3-0.3l-0.8-2.9
		c0.4,0,0.5,0,1.4-0.2c-0.3-1.1-0.7-2-0.9-2.6l2.1-0.7H7.5v-1c-0.4,0.4-0.5,0.7-0.7,1c-0.3-0.4-0.3-0.5-0.7-1.2v8.2H2.9V78
		c-0.3,0.8-0.5,1.1-0.8,1.5c-0.3-1.1-1.8-2.5-2-2.6c1.8-2.2,2.7-5.3,2.8-5.8H0.8v-3h2.1V65l3.3,0.2c0.2,0,0.4,0,0.4,0.3
		c0,0.2-0.2,0.3-0.5,0.4v2.3h1.2v-1.9h1.9V65l3.3,0.2c0.1,0,0.3,0,0.3,0.2c0,0.2-0.2,0.4-0.5,0.4v0.4h2.1v2.4h-2.1v0.8L14,69.4
		L14,69.4z M9.2,69.4v-0.8H7.8v0.8H9.2z M10.5,80.3c0.3-0.8,0.7-2,0.9-3H9.6c0.4,1,0.6,1.4,0.9,2.4c-0.6,0.2-1.1,0.4-2.3,0.9
		L10.5,80.3z M10,74.3v0.8h1.4v-0.8H10z M14.4,77.8c0.1,0,0.2,0.2,0.2,0.2c0,0.3-0.3,0.4-0.6,0.4c-0.4,1.1-0.4,1.2-0.6,1.5
		c0.8-0.1,0.9-0.2,1.3-0.3c-0.1,0.4-0.2,0.6-0.2,1.2c0.3,0.1,0.8,0.2,1.1,0.2c0.6,0,0.6-0.2,0.6-0.9v-2.4c-0.8,0.4-1,0.6-1.4,0.8
		c-0.3-1.7-0.8-2.9-0.9-3.2v2h-1.4L14.4,77.8z"/>
</g>
</svg>
