<?xml version="1.0" encoding="utf-8"?>
<!-- Generator: Adobe Illustrator 23.1.1, SVG Export Plug-In . SVG Version: 6.00 Build 0)  -->
<svg version="1.1" id="レイヤー_1" xmlns="http://www.w3.org/2000/svg" xmlns:xlink="http://www.w3.org/1999/xlink" x="0px"
	 y="0px" viewBox="0 0 20.5 105.9" style="enable-background:new 0 0 20.5 105.9;" xml:space="preserve">
<style type="text/css">
	.st0{fill:none;stroke:#ffffff;stroke-width:0.2;stroke-linecap:round;stroke-linejoin:round;stroke-miterlimit:10;}
</style>
<g>
	<path class="st0" d="M8.7,14.7V0.1l3.9,0.2c0.2,0,0.4,0.1,0.4,0.3c0,0.2-0.1,0.2-0.6,0.4v13.6H16V3.8l3.9,0.3
		c0.2,0,0.4,0.1,0.4,0.3c0,0.2,0,0.2-0.5,0.5v14.5H16v-1.2H5v1.2H1.3V3.8L5.1,4c0.4,0,0.6,0.2,0.6,0.3c0,0.2-0.2,0.3-0.6,0.5v9.9
		H8.7z"/>
	<path class="st0" d="M11.9,27.4c3,1.9,6,4.3,6.9,5.2c-0.9,0.9-1.5,1.6-2.5,3c-1.3-1.5-2.8-2.8-4.4-3.9V41H8V25.8H0.9v-3.5h19.4v3.5
		h-8.4C11.9,25.8,11.9,27.4,11.9,27.4z"/>
	<path class="st0" d="M11.5,43.3c0.1,0,0.4,0,0.4,0.3c0,0.2-0.3,0.3-0.5,0.4c-0.2,0.5-0.2,0.8-0.4,1.1h9.2v3H9.9
		c-0.3,0.7-0.5,0.9-0.6,1.2h8.9v10.5c0,2.1-0.9,3-5.2,2.8c0-1-0.2-1.7-1-3.2c0.3,0,1.6,0.3,1.9,0.3c0.8,0,0.8-0.3,0.8-0.7v-0.7h-6
		v4.4H5.1v-8.5c-1.1,1-1.7,1.4-2.2,1.7C2,54.7,1.3,54,0.3,53.3c2.5-1.4,4.4-3,5.7-5.3H0.9v-3h6.3c0.4-1,0.5-1.7,0.6-2.2L11.5,43.3z
		 M14.6,52.7v-0.8h-6v0.8H14.6z M8.6,55.1V56h6v-0.9H8.6z"/>
	<path class="st0" d="M6,84.2H2.5v-9c-0.2,0.2-0.3,0.3-0.6,0.6c-0.4-1-1-2.4-1.8-3.1c1.5-1.6,3.2-4.8,3.9-8l3.6,0.8
		c0.2,0.1,0.3,0.2,0.3,0.3c0,0.3-0.4,0.4-0.6,0.4c-0.6,1.8-1.3,3.2-1.3,3.4c0.4,0.1,0.5,0.2,0.5,0.4c0,0.2-0.2,0.3-0.5,0.4L6,84.2
		L6,84.2z M15.1,80.7h5.2v3.1H6.6v-3.1h4.8V79H7.3v-3h4.1v-1.6H6.6v-3.1h4.8v-1.4H7.3v-3.1h4.2v-2.1l3.8,0.1c0.2,0,0.4,0.1,0.4,0.3
		c0,0.2-0.2,0.4-0.5,0.5v1.2h4.3v3.1h-4.3v1.4h5.2v3.1H13l2.1,0.3c0.3,0,0.5,0.1,0.5,0.3c0,0.3-0.4,0.4-0.5,0.4V76h4.3v3h-4.3
		C15.1,79,15.1,80.7,15.1,80.7z"/>
	<path class="st0" d="M20.3,94.2v3.3h-7.7v5.2c0,1.7-0.4,3.3-5.7,3.1c-0.2-1.1-0.6-2.4-1.1-3.6c1.2,0.1,2,0.2,2.3,0.2
		c0.7,0,0.7-0.3,0.7-1.1v-3.7H0.9v-3.3h7.8v-2.9l1.9,0.1c0.7-0.5,1.1-0.9,1.5-1.2H2.9V87h13.9l1.9,1.6c-1.9,2.1-5.5,4.9-6.1,5.5v0.1
		L20.3,94.2L20.3,94.2z"/>
</g>
</svg>
