<?xml version="1.0" encoding="utf-8"?>
<!-- Generator: Adobe Illustrator 23.1.1, SVG Export Plug-In . SVG Version: 6.00 Build 0)  -->
<svg version="1.1" id="レイヤー_1" xmlns="http://www.w3.org/2000/svg" xmlns:xlink="http://www.w3.org/1999/xlink" x="0px"
	 y="0px" viewBox="0 0 96.5 22.2" style="enable-background:new 0 0 96.5 22.2;" xml:space="preserve">
<style type="text/css">
	.st0{fill:none;stroke:#ffffff;stroke-width:0.2;stroke-miterlimit:10;}
</style>
<g>
	<path class="st0" d="M5.7,8.8l3.8,0.1c0.2,0,0.4,0.1,0.4,0.3c0,0.3-0.2,0.4-0.5,0.6V11H12v3.4H9.4v2.1c1.7-0.3,2.9-0.5,3.7-0.6
		c-0.2,1.2-0.3,2.1-0.2,3.5C7.5,20.6,3.8,21,1.6,21.3c-0.1,0.3-0.2,0.6-0.5,0.6c-0.2,0-0.4-0.1-0.4-0.3l-0.7-3.9
		c0.8-0.1,1-0.1,1.4-0.1V10l3.5,0.2c0.2,0,0.4,0.1,0.4,0.3c0,0.2-0.2,0.3-0.4,0.4v6.2c0.1,0,0.6-0.1,0.7-0.1L5.7,8.8L5.7,8.8z
		 M0.4,8.4V5.2h11.2c0-0.4-0.2-3.3-0.2-5l4.1,0.1c0.2,0,0.4,0,0.4,0.3c0,0.3-0.4,0.5-0.6,0.6c-0.1,1.2,0,1.5,0.1,4h2.5
		c-0.9-1.5-1.9-2.6-2.2-3l2.6-2c1.3,1.3,2.1,2.3,2.8,3.4c-0.5,0.3-1.2,0.7-2.2,1.6h3v3.3h-6.2c1,7.2,2.7,8.1,2.8,8.1
		c0.2,0,0.5-1.3,0.5-2.3c1.3,1,1.9,1.4,3.3,1.9c-0.6,5.2-2.2,5.7-3.2,5.7c-1.7,0-3.3-1.5-4.7-4.1c-1.9-3.4-2.4-8.1-2.4-9.1L0.4,8.4
		L0.4,8.4z M10.7,1.3v3.1H1.4V1.3H10.7z"/>
	<path class="st0" d="M30,20.5v0.9h-4V1.2h20.1v20.2h-4v-0.9L30,20.5L30,20.5z M34.1,9.2V4.8H30v4.4H34.1z M34.1,17v-4.4H30V17H34.1
		z M42.1,9.2V4.8H38v4.4H42.1z M38,12.6V17h4.1v-4.4H38z"/>
	<path class="st0" d="M62.9,10.9H59V9.1c-0.3,0.3-0.9,1-2.5,2.2H65l1,0.9c-0.1,0.4-0.5,1.5-0.6,1.8H70c-0.2,6-0.5,7.9-5.5,7.9
		c-0.4,0-0.8,0-1.1-0.1c-0.1-1.1-0.3-2.1-1.2-3.5c1.2,0.2,2,0.2,2.2,0.2c1.4,0,1.4-0.3,1.5-1.5h-1.6c-0.2,0.6-0.3,0.7-0.4,1
		c-1.3-0.5-3.3-0.9-3.7-0.9c0.2-0.4,0.8-1.5,1.1-2.5H60c-0.4,1.9-1.4,5.7-7.5,7.5c-0.6-1.2-1-1.7-2.5-3.3c4.6-0.4,5.5-3.2,5.7-4.2
		h-2v-1.5c-1,0.6-1.5,0.8-2,1c-0.6-1.2-1.5-2.3-2.3-3.2c3.2-0.8,5.2-2.2,6.4-3.1h-5.5V4.7H59V3.9c-1,0-3.1,0.1-3.9,0.1
		c-0.9,0-1.6,0-2.5-0.1c-0.2-1-0.5-1.8-1.3-3.1c1.5,0.2,3.4,0.2,5.3,0.2c2.2,0,7.5,0,11.1-0.9l2,2.8c0.1,0.1,0.1,0.2,0.1,0.3
		c0,0.2-0.1,0.3-0.3,0.3c-0.2,0-0.5-0.1-0.7-0.3c-2.8,0.5-5.2,0.6-6,0.6v0.7h8.7v3.1h-5.6c2.1,1.7,3.9,2.2,6.2,2.8
		c-1,1.2-1.5,1.9-2.2,3.4c-3.2-1.4-5.7-3.4-7.1-5C62.9,9,62.9,10.9,62.9,10.9z"/>
	<path class="st0" d="M89.6,5.3v2.7h-7.1V7.1h-1.7v0.1c0.7,1.5,1.4,2.4,1.6,2.7V8.5h7.1v1.2l2-1c0.3,0.6,0.4,0.8,0.6,1.4V7.8h-1.9
		V4.4h1.9V0.3l3.6,0.2c0.2,0,0.5,0,0.5,0.3c0,0.3-0.3,0.4-0.5,0.4v3.1h0.7v3.4h-0.7v10.9c0,2.9-1.6,3.1-4.7,3.1
		c-0.1-1.4-0.2-2.1-0.9-3.5c-0.1,0.6-0.1,0.9-0.1,1.3c-0.9,0.2-3.6,0.7-7.3,1.3c-0.1,0.4-0.2,0.6-0.4,0.6c-0.2,0-0.3-0.2-0.3-0.4
		l-0.8-3.3c0.4,0,0.5,0,1.6-0.2c-0.3-1.3-0.8-2.2-1-2.9l2.4-0.8h-1.8v-1.1c-0.4,0.5-0.6,0.8-0.8,1.1c-0.3-0.4-0.3-0.5-0.8-1.3v9.2
		h-3.6v-7c-0.4,0.9-0.6,1.2-0.9,1.7c-0.3-1.2-2-2.8-2.2-2.9c2-2.5,3-5.9,3.1-6.4h-2.3V3.8h2.4V0.3l3.7,0.2c0.2,0,0.4,0,0.4,0.3
		c0,0.2-0.3,0.3-0.5,0.4v2.6h1.3V1.7h2.2V0.3L88,0.5c0.1,0,0.3,0,0.3,0.3c0,0.3-0.3,0.4-0.5,0.5v0.4h2.3v2.7h-2.3v0.9L89.6,5.3
		L89.6,5.3z M84.3,5.3V4.4h-1.6v0.9L84.3,5.3L84.3,5.3z M85.7,17.4c0.4-0.9,0.8-2.3,1.1-3.4h-2c0.5,1.1,0.7,1.6,1,2.7
		c-0.6,0.2-1.3,0.4-2.6,1L85.7,17.4z M85.2,10.7v0.9h1.6v-0.9H85.2z M90.1,14.6c0.1,0.1,0.2,0.2,0.2,0.3c0,0.4-0.3,0.4-0.7,0.4
		c-0.4,1.2-0.5,1.3-0.6,1.6c0.8-0.1,1.1-0.2,1.5-0.3c-0.1,0.4-0.2,0.7-0.3,1.3c0.4,0.1,0.8,0.2,1.2,0.2c0.7,0,0.7-0.2,0.7-1v-2.7
		c-0.9,0.5-1.1,0.6-1.6,0.9c-0.3-1.9-0.9-3.3-1-3.5V14H88L90.1,14.6z"/>
</g>
</svg>
