<?xml version="1.0" encoding="utf-8"?>
<!-- Generator: Adobe Illustrator 23.1.1, SVG Export Plug-In . SVG Version: 6.00 Build 0)  -->
<svg version="1.1" id="レイヤー_1" xmlns="http://www.w3.org/2000/svg" xmlns:xlink="http://www.w3.org/1999/xlink" x="0px"
	 y="0px" viewBox="0 0 123.01 23.95" style="enable-background:new 0 0 123.01 23.95;" xml:space="preserve">
<style type="text/css">
	.st0{fill:none;stroke:#ffffff;stroke-width:0.2;stroke-miterlimit:10;}
</style>
<g>
	<path class="st0" d="M9.6,17.62V1.37l4.39,0.23c0.28,0.02,0.49,0.07,0.49,0.35c0,0.26-0.07,0.28-0.68,0.49v15.17h3.97V5.49
		l4.35,0.3c0.23,0.02,0.47,0.07,0.47,0.35c0,0.23-0.05,0.26-0.61,0.51v16.18h-4.21v-1.36H5.51v1.36H1.37V5.51l4.18,0.16
		C6.04,5.7,6.16,5.84,6.16,6.03c0,0.28-0.21,0.35-0.65,0.51v11.08H9.6z"/>
	<path class="st0" d="M38.06,7.73c3.39,2.06,6.73,4.77,7.71,5.75c-1.03,1.01-1.64,1.75-2.81,3.37c-1.4-1.68-3.13-3.06-4.91-4.35
		v10.36h-4.3V6h-7.95V2.12h21.65V6h-9.4V7.73z"/>
	<path class="st0" d="M62.52,1.4c0.16,0.02,0.47,0.05,0.47,0.35c0,0.26-0.33,0.37-0.56,0.44c-0.19,0.58-0.26,0.84-0.4,1.24h10.19
		v3.34H60.67c-0.37,0.72-0.54,0.98-0.72,1.29h9.89v11.76c0,2.38-1.01,3.3-5.8,3.13c-0.05-1.12-0.23-1.85-1.08-3.62
		c0.33,0.05,1.8,0.33,2.1,0.33c0.89,0,0.89-0.33,0.89-0.77v-0.79h-6.66v4.86h-3.86v-9.47C54.2,14.6,53.59,15,52.98,15.4
		c-1.03-1.26-1.87-2.01-2.95-2.76c2.81-1.52,4.86-3.3,6.33-5.87h-5.63V3.43h7.06c0.4-1.12,0.51-1.87,0.63-2.45L62.52,1.4z
		 M65.96,11.94v-0.89h-6.66v0.89H65.96z M59.29,14.54v0.98h6.66v-0.98H59.29z"/>
	<path class="st0" d="M80.54,22.93h-3.9v-9.98c-0.19,0.23-0.3,0.35-0.63,0.65c-0.42-1.15-1.17-2.67-2.01-3.44
		c1.68-1.75,3.62-5.38,4.37-8.88l3.95,0.86c0.28,0.07,0.37,0.26,0.37,0.37c0,0.3-0.42,0.42-0.7,0.47c-0.65,2.06-1.4,3.58-1.5,3.76
		c0.44,0.14,0.58,0.19,0.58,0.4c0,0.26-0.19,0.33-0.54,0.49V22.93z M90.71,19.07h5.75v3.46H81.26v-3.46h5.35v-1.89h-4.58v-3.39h4.58
		v-1.75h-5.35V8.62h5.35V7.01h-4.63V3.57h4.63V1.28l4.25,0.14c0.19,0,0.42,0.07,0.42,0.3c0,0.26-0.28,0.4-0.58,0.56v1.29h4.79v3.44
		h-4.79v1.61h5.75v3.41h-8.09l2.34,0.3c0.37,0.05,0.61,0.07,0.61,0.33c0,0.33-0.42,0.42-0.61,0.47v0.65h4.79v3.39h-4.79V19.07z"/>
	<path class="st0" d="M121.3,10.05v3.67h-8.63v5.8c0,1.94-0.4,3.67-6.38,3.41c-0.16-1.17-0.61-2.64-1.22-3.97
		c1.33,0.14,2.22,0.16,2.57,0.16c0.79,0,0.79-0.33,0.79-1.26v-4.14h-8.7v-3.67h8.7v-3.2l2.08,0.12c0.77-0.54,1.29-0.98,1.64-1.29
		h-10.15V2.03h15.45l2.06,1.8c-2.13,2.34-6.1,5.52-6.85,6.08v0.14H121.3z"/>
</g>
</svg>
