<?xml version="1.0" encoding="utf-8"?>
<!-- Generator: Adobe Illustrator 23.1.1, SVG Export Plug-In . SVG Version: 6.00 Build 0)  -->
<svg version="1.1" id="レイヤー_1" xmlns="http://www.w3.org/2000/svg" xmlns:xlink="http://www.w3.org/1999/xlink" x="0px"
	 y="0px" viewBox="0 0 74.3 21.6" style="enable-background:new 0 0 74.3 21.6;" xml:space="preserve">
<style type="text/css">
	.st0{fill:none;stroke:#000000;stroke-width:0.2;stroke-linecap:round;stroke-linejoin:round;stroke-miterlimit:10;}
</style>
<g>
	<path class="st0" d="M6.2,16.1l-1.6,5H0.1L7.2,0.6h5.7L20,21.1h-4.4l-1.6-5L6.2,16.1L6.2,16.1z M12.4,11.1c-0.8-2.6-1.6-5.4-2.3-8
		H10c-0.7,2.7-1.5,5.4-2.3,8l-0.4,1.3h5.6L12.4,11.1z"/>
	<path class="st0" d="M21.9,21.1V0.6h4.2v20.5H21.9z"/>
	<path class="st0" d="M46.8,7.7h-4.3c-0.3-2.4-1.8-3.8-4.2-3.8c-3.1,0-5,2.7-5,7c0,4.4,1.9,7,4.9,7c2.4,0,4-1.4,4.3-3.9h4.3
		c-0.4,4.9-3.7,7.6-8.7,7.6c-5.8,0-9.3-4.1-9.3-10.7c0-6.6,3.6-10.7,9.4-10.7C43.4,0.1,46.6,3.2,46.8,7.7z"/>
	<path class="st0" d="M62.3,21.1v-8.8h-8.4v8.8h-4.2V0.6h4.2v8h8.4v-8h4.2v20.5H62.3z"/>
	<path class="st0" d="M69.9,21.1V0.6h4.2v20.5H69.9z"/>
</g>
</svg>
