<?xml version="1.0" encoding="utf-8"?>
<!-- Generator: Adobe Illustrator 23.1.1, SVG Export Plug-In . SVG Version: 6.00 Build 0)  -->
<svg version="1.1" id="レイヤー_1" xmlns="http://www.w3.org/2000/svg" xmlns:xlink="http://www.w3.org/1999/xlink" x="0px"
	 y="0px" viewBox="0 0 162.1 21.6" style="enable-background:new 0 0 162.1 21.6;" xml:space="preserve">
<style type="text/css">
	.st0{fill:none;stroke:#000000;stroke-width:0.2;stroke-linecap:round;stroke-linejoin:round;stroke-miterlimit:10;}
</style>
<g>
	<path class="st0" d="M4.3,4.2v5.6H13v3.6H4.3V21H0.1V0.6h13.7v3.6H4.3z"/>
	<path class="st0" d="M32.1,13.2c0,5.4-2.9,8.3-8.1,8.3c-5.2,0-8.1-2.9-8.1-8.3V0.6h4.2v12.5c0,3.1,1.4,4.7,3.9,4.7s3.9-1.6,3.9-4.7
		V0.6h4.2V13.2z"/>
	<path class="st0" d="M50.6,21h-5.4l-6.9-9.7h-0.1V21H34V0.6h4.2v9h0.1l6.7-9h5l-7.8,9.7L50.6,21z"/>
	<path class="st0" d="M68.3,13.2c0,5.4-2.9,8.3-8.1,8.3c-5.2,0-8.1-2.9-8.1-8.3V0.6h4.2v12.5c0,3.1,1.4,4.7,3.9,4.7s3.9-1.6,3.9-4.7
		V0.6h4.2C68.3,0.6,68.3,13.2,68.3,13.2z"/>
	<path class="st0" d="M86.4,6.8h-4.3c0-2.1-1.2-3.4-3.6-3.4c-1.9,0-3.1,0.9-3.1,2.2c0,1.6,1.2,2.1,4.5,2.9c3.9,0.9,7.2,2,7.2,6.4
		c0,3.9-3.2,6.5-8,6.5c-5.1,0-8.3-2.5-8.3-7.2h4.4c0,2.5,1.3,3.8,4,3.8c2.2,0,3.5-1,3.5-2.6c0-1.8-1.3-2.2-4.2-2.9
		c-3.9-1-7.4-1.9-7.4-6.4c0-3.6,3.1-6.1,7.6-6.1C83.8,0.1,86.4,2.4,86.4,6.8z"/>
	<path class="st0" d="M102.5,21v-8.8h-8.4V21h-4.2V0.6h4.2v8h8.4v-8h4.2V21H102.5z"/>
	<path class="st0" d="M109.6,21V0.6h4.2V21H109.6z"/>
	<path class="st0" d="M136.1,21V10.9c0-2.6,0.1-5.1,0.2-7.7h-0.1c-0.7,2.5-1.4,5.1-2.2,7.5l-3.2,10.3h-4.8l-3.2-10.3
		c-0.8-2.5-1.5-5-2.2-7.5h-0.1c0.1,2.6,0.2,5.1,0.2,7.7v10.2h-4.1V0.6h6.8l3,9.4c0.8,2.5,1.5,5,2,7.5h0.1c0.6-2.5,1.2-5.1,2-7.5
		l3-9.4h6.8V21C140.1,21,136.1,21,136.1,21z"/>
	<path class="st0" d="M148.1,16l-1.6,5H142l7.1-20.5h5.7l7.1,20.5h-4.4l-1.6-5H148.1z M154.3,11.1c-0.8-2.6-1.6-5.3-2.3-8h-0.1
		c-0.7,2.6-1.5,5.4-2.3,8l-0.4,1.4h5.6L154.3,11.1z"/>
</g>
</svg>
