<?xml version="1.0" encoding="utf-8"?>
<!-- Generator: Adobe Illustrator 23.1.1, SVG Export Plug-In . SVG Version: 6.00 Build 0)  -->
<svg version="1.1" id="レイヤー_1" xmlns="http://www.w3.org/2000/svg" xmlns:xlink="http://www.w3.org/1999/xlink" x="0px"
	 y="0px" viewBox="0 0 145.5 21.6" style="enable-background:new 0 0 145.5 21.6;" xml:space="preserve">
<style type="text/css">
	.st0{fill:none;stroke:#000000;stroke-width:0.2;stroke-linecap:round;stroke-linejoin:round;stroke-miterlimit:10;}
</style>
<g>
	<path class="st0" d="M12.7,21.1v-8.8H4.3v8.8H0.1V0.6h4.2v8h8.4v-8H17v20.5H12.7z"/>
	<path class="st0" d="M39.2,10.8c0,6.6-3.7,10.7-9.7,10.7s-9.7-4.1-9.7-10.7s3.7-10.7,9.7-10.7S39.2,4.2,39.2,10.8z M24.2,10.8
		c0,4.3,2,7,5.3,7s5.3-2.6,5.3-7c0-4.3-2-7-5.3-7C26.2,3.9,24.2,6.5,24.2,10.8z"/>
	<path class="st0" d="M58.4,21.1H53L46,11.4H46v9.7h-4.2V0.6H46v9H46l6.7-9h5l-7.8,9.7L58.4,21.1z"/>
	<path class="st0" d="M76.8,21.1h-5.4l-6.9-9.7h-0.1v9.7h-4.2V0.6h4.2v9h0.1l6.7-9h4.9l-7.8,9.7L76.8,21.1z"/>
	<path class="st0" d="M83.6,16.1l-1.6,5h-4.4l7.1-20.5h5.7l7.1,20.5h-4.4l-1.6-5H83.6z M89.9,11.1c-0.8-2.6-1.6-5.4-2.3-8h-0.1
		c-0.7,2.7-1.5,5.4-2.3,8l-0.4,1.4h5.6L89.9,11.1z"/>
	<path class="st0" d="M99.3,21.1V0.6h4.2v20.5H99.3z"/>
	<path class="st0" d="M113.4,0.6c7,0,10.9,3.7,10.9,10.2s-3.9,10.2-10.9,10.2h-6.8V0.6H113.4z M110.8,17.4h2.6
		c4.4,0,6.6-2.2,6.6-6.6s-2.2-6.6-6.6-6.6h-2.6V17.4z"/>
	<path class="st0" d="M145.4,10.8c0,6.6-3.7,10.7-9.7,10.7s-9.7-4.1-9.7-10.7s3.7-10.7,9.7-10.7S145.4,4.2,145.4,10.8z M130.3,10.8
		c0,4.3,2,7,5.3,7c3.3,0,5.3-2.6,5.3-7c0-4.3-2-7-5.3-7C132.4,3.9,130.3,6.5,130.3,10.8z"/>
</g>
</svg>
