<?xml version="1.0" encoding="utf-8"?>
<!-- Generator: Adobe Illustrator 24.0.1, SVG Export Plug-In . SVG Version: 6.00 Build 0)  -->
<svg version="1.1" id="レイヤー_1" xmlns="http://www.w3.org/2000/svg" xmlns:xlink="http://www.w3.org/1999/xlink" x="0px"
	 y="0px" viewBox="0 0 173.3 24" style="enable-background:new 0 0 173.3 24;" xml:space="preserve">
<style type="text/css">
	.st0{fill:none;stroke:#000000;stroke-width:0.6;stroke-linecap:round;stroke-linejoin:round;stroke-miterlimit:10;}
</style>
<g>
	<path class="st0" d="M19.1,22.2h-5.4l-7-9.7H6.6v9.7H2.3V1.6h4.3v9.1h0.1l6.8-9.1h5l-7.9,9.8L19.1,22.2z"/>
	<path class="st0" d="M26.5,17.2l-1.6,5h-4.5l7.2-20.7h5.7l7.2,20.7H36l-1.6-5H26.5z M32.8,12.2c-0.8-2.7-1.7-5.4-2.3-8.1h-0.1
		c-0.7,2.7-1.5,5.4-2.3,8.1l-0.4,1.4h5.6L32.8,12.2z"/>
	<path class="st0" d="M53.4,22.2l-4-8.4c-1.3-2.8-2.6-5.7-3.8-8.5h-0.1c0.1,3,0.2,6,0.2,9v7.9h-4.1V1.6h6.1l4,8.4
		c1.3,2.8,2.6,5.7,3.8,8.5h0.1c-0.1-3-0.2-6-0.2-9V1.6h4.1v20.7H53.4z"/>
	<path class="st0" d="M66.8,17.2l-1.6,5h-4.5l7.2-20.7h5.7l7.2,20.7h-4.5l-1.6-5H66.8z M73.2,12.2c-0.8-2.7-1.7-5.4-2.3-8.1h-0.1
		c-0.7,2.7-1.5,5.4-2.3,8.1L68,13.5h5.6L73.2,12.2z"/>
	<path class="st0" d="M98.6,8H94c-0.4-2-1.7-3.1-4-3.1c-3.3,0-5.4,2.7-5.4,7.1c0,4.5,2,7.3,5.3,7.3c3,0,4.6-1.7,4.6-4.9h-4.9v-3.5
		h8.9v11.3h-3.6V20h-0.1c-1.2,1.6-3.3,2.6-6,2.6c-5.3,0-8.6-4-8.6-10.6C80.2,5.2,84,1.1,90,1.1C95.1,1.1,98.2,3.8,98.6,8z"/>
	<path class="st0" d="M106.4,17.2l-1.6,5h-4.5l7.2-20.7h5.7l7.2,20.7h-4.5l-1.6-5H106.4z M112.7,12.2c-0.8-2.7-1.7-5.4-2.3-8.1h-0.1
		c-0.7,2.7-1.5,5.4-2.3,8.1l-0.4,1.4h5.6L112.7,12.2z"/>
	<path class="st0" d="M135.6,22.2l-1.9-8.2c-0.7-2.9-1.3-5.9-1.8-8.8h-0.1c-0.5,3-1.1,5.9-1.8,8.8l-1.9,8.2h-5.5l-4.3-20.7h4.2
		l1.5,7.5c0.6,3,1.1,6,1.5,8.9h0.1c0.5-2.9,1.2-5.9,1.9-8.9l1.8-7.5h5.4l1.8,7.5c0.7,3,1.4,6,1.9,8.9h0.1c0.4-2.9,0.9-6,1.5-8.9
		l1.5-7.5h4.2l-4.3,20.7H135.6z"/>
	<path class="st0" d="M149.4,17.2l-1.6,5h-4.5l7.2-20.7h5.7l7.2,20.7h-4.5l-1.6-5H149.4z M155.7,12.2c-0.8-2.7-1.7-5.4-2.3-8.1h-0.1
		c-0.7,2.7-1.5,5.4-2.3,8.1l-0.4,1.4h5.6L155.7,12.2z"/>
</g>
</svg>
