<?xml version="1.0" encoding="utf-8"?>
<!-- Generator: Adobe Illustrator 23.1.1, SVG Export Plug-In . SVG Version: 6.00 Build 0)  -->
<svg version="1.1" id="レイヤー_1" xmlns="http://www.w3.org/2000/svg" xmlns:xlink="http://www.w3.org/1999/xlink" x="0px"
	 y="0px" viewBox="0 0 91.9 21.6" style="enable-background:new 0 0 91.9 21.6;" xml:space="preserve">
<style type="text/css">
	.st0{fill:none;stroke:#000000;stroke-width:0.2;stroke-linecap:round;stroke-linejoin:round;stroke-miterlimit:10;}
</style>
<g>
	<path class="st0" d="M16.7,21.1h-5.4l-6.9-9.7H4.3v9.7H0.1V0.6h4.2v9h0.1l6.7-9H16l-7.8,9.7L16.7,21.1z"/>
	<path class="st0" d="M28.3,21.1h-4.2v-8l-7-12.5h4.7l2,3.9c0.9,1.7,1.7,3.5,2.4,5.2h0.1c0.7-1.8,1.5-3.5,2.4-5.2l2-3.9h4.7l-7,12.5
		V21.1z"/>
	<path class="st0" d="M54.2,10.8c0,6.6-3.7,10.7-9.7,10.7s-9.7-4.1-9.7-10.7s3.7-10.7,9.7-10.7S54.2,4.2,54.2,10.8z M39.2,10.8
		c0,4.3,2,7,5.3,7s5.3-2.6,5.3-7c0-4.3-2-7-5.3-7C41.2,3.9,39.2,6.5,39.2,10.8z"/>
	<path class="st0" d="M65.4,4.2v16.9h-4.2V4.2h-6.5V0.6h17.1v3.6H65.4z"/>
	<path class="st0" d="M91.8,10.8c0,6.6-3.7,10.7-9.7,10.7s-9.7-4.1-9.7-10.7s3.7-10.7,9.7-10.7S91.8,4.2,91.8,10.8z M76.8,10.8
		c0,4.3,2,7,5.3,7s5.3-2.6,5.3-7c0-4.3-2-7-5.3-7C78.8,3.9,76.8,6.5,76.8,10.8z"/>
</g>
</svg>
