<?xml version="1.0" encoding="utf-8"?>
<!-- Generator: Adobe Illustrator 23.1.1, SVG Export Plug-In . SVG Version: 6.00 Build 0)  -->
<svg version="1.1" id="レイヤー_1" xmlns="http://www.w3.org/2000/svg" xmlns:xlink="http://www.w3.org/1999/xlink" x="0px"
	 y="0px" viewBox="0 0 140.8 21.6" style="enable-background:new 0 0 140.8 21.6;" xml:space="preserve">
<style type="text/css">
	.st0{fill:none;stroke:#000000;stroke-width:0.2;stroke-linecap:round;stroke-linejoin:round;stroke-miterlimit:10;}
</style>
<g>
	<path class="st0" d="M11.7,21.1l-4-8.3C6.4,10,5.1,7.1,4,4.3H3.9c0.1,3,0.2,5.9,0.2,8.9v7.9H0.1V0.6h6l4,8.3
		c1.3,2.7,2.6,5.6,3.7,8.5h0.1c-0.1-3-0.2-5.9-0.2-8.9V0.6h4.1v20.5H11.7z"/>
	<path class="st0" d="M25.6,16l-1.6,5h-4.4l7.1-20.5h5.7l7.1,20.5H35l-1.6-5H25.6z M31.9,11.1c-0.8-2.6-1.6-5.4-2.3-8h-0.1
		c-0.7,2.7-1.5,5.4-2.3,8l-0.4,1.4h5.5L31.9,11.1z"/>
	<path class="st0" d="M57.7,7h-4.5c-0.4-2-1.7-3.1-4-3.1c-3.3,0-5.3,2.7-5.3,7.1c0,4.5,2,7.2,5.3,7.2c2.9,0,4.5-1.7,4.6-4.9h-4.9
		V9.8h8.8v11.3h-3.6v-2.2H54c-1.2,1.6-3.2,2.6-6,2.6c-5.2,0-8.6-4-8.6-10.6c0-6.7,3.7-10.8,9.7-10.8C54.2,0.1,57.3,2.8,57.7,7z"/>
	<path class="st0" d="M65.4,16l-1.6,5h-4.4l7.1-20.5h5.7l7.1,20.5h-4.4l-1.6-5H65.4z M71.7,11.1c-0.8-2.6-1.6-5.4-2.3-8h-0.1
		c-0.7,2.7-1.5,5.4-2.3,8l-0.4,1.4h5.6L71.7,11.1z"/>
	<path class="st0" d="M95.2,6.8h-4.3c0-2.1-1.2-3.4-3.6-3.4c-1.9,0-3.1,0.9-3.1,2.2c0,1.6,1.2,2.1,4.5,2.9c3.9,0.9,7.2,2,7.2,6.4
		c0,3.9-3.2,6.5-8,6.5c-5.1,0-8.3-2.5-8.3-7.2h4.4c0,2.5,1.3,3.8,4,3.8c2.2,0,3.5-1,3.5-2.6c0-1.8-1.3-2.2-4.2-2.9
		c-3.9-1-7.4-1.9-7.4-6.4c0-3.6,3.1-6.1,7.6-6.1C92.5,0.1,95.2,2.4,95.2,6.8z"/>
	<path class="st0" d="M102.3,16l-1.6,5h-4.4l7.1-20.5h5.7l7.1,20.5h-4.4l-1.6-5H102.3z M108.6,11.1c-0.8-2.6-1.6-5.4-2.3-8h-0.1
		c-0.7,2.7-1.5,5.4-2.3,8l-0.4,1.4h5.6L108.6,11.1z"/>
	<path class="st0" d="M134.6,21.1h-5.4l-6.9-9.7h-0.1v9.7H118V0.6h4.2v9h0.1l6.7-9h4.9l-7.8,9.7L134.6,21.1z"/>
	<path class="st0" d="M136.4,21.1V0.6h4.2v20.5H136.4z"/>
</g>
</svg>
