<?xml version="1.0" encoding="utf-8"?>
<!-- Generator: Adobe Illustrator 24.0.0, SVG Export Plug-In . SVG Version: 6.00 Build 0)  -->
<svg version="1.1" id="レイヤー_1" xmlns="http://www.w3.org/2000/svg" xmlns:xlink="http://www.w3.org/1999/xlink" x="0px"
	 y="0px" viewBox="0 0 122.9 21.8" style="enable-background:new 0 0 122.9 21.8;" xml:space="preserve">
<style type="text/css">
	.st0{enable-background:new    ;}
	.st1{fill:none;stroke:#C7C8C8;stroke-width:0.2;}
</style>
<g class="st0">
	<path class="st1" d="M16.3,7H12c0-2.1-1.2-3.4-3.5-3.4c-1.9,0-3.1,0.9-3.1,2.2c0,1.6,1.2,2.1,4.4,2.9c3.8,1,7.2,1.9,7.2,6.4
		c0,3.9-3.2,6.5-8,6.5c-5.1,0-8.3-2.5-8.3-7.2h4.4c0,2.5,1.3,3.8,4,3.8c2.2,0,3.5-1,3.5-2.6c0-1.8-1.3-2.2-4.2-2.9
		C4.5,11.7,1,10.8,1,6.3c0-3.6,3.1-6.1,7.5-6.1C13.6,0.3,16.3,2.6,16.3,7z"/>
	<path class="st1" d="M22.6,16.1l-1.6,5h-4.4l7.1-20.4h5.7l7.1,20.4H32l-1.6-5H22.6z M28.8,11.2c-0.8-2.6-1.6-5.4-2.3-8h0
		c-0.7,2.7-1.5,5.4-2.3,8l-0.4,1.3h5.5L28.8,11.2z"/>
	<path class="st1" d="M44,4.3v16.8h-4.2V4.3h-6.4V0.7h17v3.6H44z"/>
	<path class="st1" d="M55.9,4.3v4.6h9.2v3.6h-9.2v5H66v3.6H51.7V0.7h14.1v3.6C65.8,4.3,55.9,4.3,55.9,4.3z"/>
	<path class="st1" d="M82.6,17.5v3.6H68.8V0.7H73v16.8C73,17.5,82.6,17.5,82.6,17.5z"/>
	<path class="st1" d="M84.2,21.1V0.7h4.2v20.4H84.2z"/>
	<path class="st1" d="M100.4,4.3v16.8h-4.2V4.3h-6.4V0.7h17v3.6H100.4z"/>
	<path class="st1" d="M112.3,4.3v4.6h9.3v3.6h-9.3v5h10.1v3.6h-14.4V0.7h14.1v3.6H112.3z"/>
</g>
</svg>
