<?xml version="1.0" encoding="utf-8"?>
<!-- Generator: Adobe Illustrator 24.0.0, SVG Export Plug-In . SVG Version: 6.00 Build 0)  -->
<svg version="1.1" id="レイヤー_1" xmlns="http://www.w3.org/2000/svg" xmlns:xlink="http://www.w3.org/1999/xlink" x="0px"
	 y="0px" viewBox="0 0 145.6 21.8" style="enable-background:new 0 0 145.6 21.8;" xml:space="preserve">
<style type="text/css">
	.st0{enable-background:new    ;}
	.st1{fill:none;stroke:#FFFFFF;stroke-width:0.2;}
</style>
<g class="st0">
	<path class="st1" d="M15.9,6.9h-4.1c0-2.1-1.2-3.3-3.4-3.3c-1.8,0-3,0.9-3,2.2c0,1.5,1.2,2,4.3,2.8c3.7,0.9,7,1.9,7,6.2
		c0,3.8-3.1,6.3-7.7,6.3c-4.9,0-8-2.4-8-7H5c0,2.4,1.3,3.6,3.8,3.6c2.1,0,3.4-1,3.4-2.5c0-1.8-1.3-2.1-4.1-2.8
		c-3.7-0.9-7.1-1.8-7.1-6.2c0-3.5,3-5.9,7.3-5.9C13.3,0.4,15.9,2.7,15.9,6.9z"/>
	<path class="st1" d="M22.9,4.4v4.5h9v3.5h-9v4.8h9.8v3.5H18.8V0.9h13.7v3.5H22.9z"/>
	<path class="st1" d="M48.9,17.1v3.5H35.5V0.9h4.1v16.3H48.9z"/>
	<path class="st1" d="M54.6,4.4v4.5h9v3.5h-9v4.8h9.8v3.5H50.5V0.9h13.7v3.5H54.6z"/>
	<path class="st1" d="M82.7,7.7h-4.1C78.3,5.4,76.8,4,74.5,4c-3,0-4.8,2.6-4.8,6.7c0,4.2,1.8,6.7,4.8,6.7c2.3,0,3.9-1.4,4.2-3.8h4.2
		c-0.4,4.7-3.5,7.4-8.4,7.4c-5.6,0-9-3.9-9-10.3c0-6.4,3.4-10.3,9.1-10.3C79.4,0.4,82.5,3.4,82.7,7.7z"/>
	<path class="st1" d="M93,4.4v16.3h-4.1V4.4h-6.2V0.9h16.5v3.5H93z"/>
	<path class="st1" d="M100.5,20.6V0.9h4.1v19.8H100.5z"/>
	<path class="st1" d="M125.6,10.7c0,6.4-3.6,10.3-9.4,10.3s-9.4-3.9-9.4-10.3s3.6-10.3,9.4-10.3S125.6,4.3,125.6,10.7z M111.1,10.7
		c0,4.2,1.9,6.7,5.1,6.7s5.1-2.6,5.1-6.7S119.5,4,116.3,4S111.1,6.6,111.1,10.7z"/>
	<path class="st1" d="M139.2,20.6l-3.8-8c-1.2-2.6-2.5-5.4-3.6-8.2h-0.1c0.1,2.9,0.2,5.7,0.2,8.6v7.6H128V0.9h5.8l3.8,8
		c1.3,2.6,2.5,5.4,3.6,8.2h0.1c-0.1-2.9-0.2-5.7-0.2-8.6V0.9h3.9v19.8H139.2z"/>
</g>
</svg>
