<?xml version="1.0" encoding="utf-8"?>
<!-- Generator: Adobe Illustrator 23.1.1, SVG Export Plug-In . SVG Version: 6.00 Build 0)  -->
<svg version="1.1" id="レイヤー_1" xmlns="http://www.w3.org/2000/svg" xmlns:xlink="http://www.w3.org/1999/xlink" x="0px"
	 y="0px" viewBox="0 0 94.2 21.6" style="enable-background:new 0 0 94.2 21.6;" xml:space="preserve">
<style type="text/css">
	.st0{fill:none;stroke:#000000;stroke-width:0.2;stroke-linecap:round;stroke-linejoin:round;stroke-miterlimit:10;}
</style>
<g>
	<path class="st0" d="M10.8,4.2V21H6.6V4.2H0.1V0.6h17.1v3.6L10.8,4.2L10.8,4.2z"/>
	<path class="st0" d="M37.2,10.8c0,6.6-3.7,10.7-9.7,10.7s-9.7-4.1-9.7-10.7s3.7-10.7,9.7-10.7S37.2,4.2,37.2,10.8z M22.1,10.8
		c0,4.3,2,7,5.3,7s5.3-2.6,5.3-7c0-4.3-2-7-5.3-7C24.1,3.8,22.1,6.5,22.1,10.8z"/>
	<path class="st0" d="M56.6,21.1h-5.4l-6.9-9.7h-0.1v9.7H40V0.6h4.2v9h0.1l6.7-9h5l-7.8,9.7L56.6,21.1z"/>
	<path class="st0" d="M68.2,21.1H64v-8L57,0.6h4.8l2,3.9c0.9,1.7,1.7,3.4,2.4,5.2h0.1c0.7-1.8,1.5-3.5,2.4-5.2l2-3.9h4.7l-7,12.5
		L68.2,21.1L68.2,21.1z"/>
	<path class="st0" d="M94.1,10.8c0,6.6-3.7,10.7-9.7,10.7s-9.7-4.1-9.7-10.7s3.7-10.7,9.7-10.7S94.1,4.2,94.1,10.8z M79.1,10.8
		c0,4.3,2,7,5.3,7s5.3-2.6,5.3-7c0-4.3-2-7-5.3-7C81.1,3.8,79.1,6.5,79.1,10.8z"/>
</g>
</svg>
