<?xml version="1.0" encoding="utf-8"?>
<!-- Generator: Adobe Illustrator 23.1.1, SVG Export Plug-In . SVG Version: 6.00 Build 0)  -->
<svg version="1.1" id="レイヤー_1" xmlns="http://www.w3.org/2000/svg" xmlns:xlink="http://www.w3.org/1999/xlink" x="0px"
	 y="0px" viewBox="0 0 46.9 825.1" style="enable-background:new 0 0 46.9 825.1;" xml:space="preserve">
<style type="text/css">
	.st0{enable-background:new    ;}
	.st1{fill:#040000;}
</style>
<g class="st0">
	<path class="st1" d="M29.7,468.8h11.4l0,0c-0.7-0.5-0.9-1.5-0.9-2.8h0.7c0,1.9,0.6,2.7,2.2,3v0.6H29.7V468.8z"/>
	<path class="st1" d="M36.5,482.1v-0.7c1.8,0,2.8-1,2.8-2.8c0-1.5-0.8-2.6-2-2.6c-1.3,0-1.6,0.9-2,2.7c-0.5,2.2-0.9,3.7-3,3.7
		c-1.7,0-2.8-1.4-2.8-3.5c0-2.4,1.3-3.9,3.6-3.9v0.7c-1.9,0-3,1.1-3,3.2c0,1.6,0.8,2.8,2.1,2.8c1.5,0,1.8-0.9,2.3-3.2
		c0.4-1.9,0.8-3.2,2.7-3.2c1.6,0,2.7,1.4,2.7,3.3C39.9,480.8,38.6,482.1,36.5,482.1z"/>
</g>
<g class="st0">
	<path class="st1" d="M30.3,490.2h-0.7c0-0.2-0.1-0.5-0.1-0.8c0-1.5,0.7-2.1,2.5-2.1h7v-1.9h0.6v1.9H42v0.7h-2.3v2.1h-0.6V488h-7
		c-1.3,0-1.8,0.4-1.8,1.5C30.3,489.8,30.3,490.1,30.3,490.2z"/>
</g>
<g class="st0">
	<path class="st1" d="M35.1,495.6h0.7v4.4h-0.7V495.6z"/>
	<path class="st1" d="M35.1,499.1h0.7v4.4h-0.7V499.1z"/>
	<path class="st1" d="M35.1,502.7h0.7v4.4h-0.7V502.7z"/>
</g>
<g class="st0">
	<path class="st1" d="M35.1,505.7h0.7v4.4h-0.7V505.7z"/>
</g>
<g class="st0">
	<path class="st1" d="M35.1,509.9h0.7v4.4h-0.7V509.9z"/>
	<path class="st1" d="M35.1,513.4h0.7v4.4h-0.7V513.4z"/>
	<path class="st1" d="M35.1,517h0.7v4.4h-0.7V517z"/>
	<path class="st1" d="M35.1,520.5h0.7v4.4h-0.7V520.5z"/>
</g>
<g class="st0">
	<path class="st1" d="M39.6,536.6c-2.3,0-3.2-1.4-4.6-3.8c-1.7-3-2.9-3.6-4.7-3.6v7.7h-0.7v-8.4c0.2,0,0.3,0,0.3,0
		c2.3,0,3.7,0.6,5.7,3.9c1.3,2.3,2,3.4,3.9,3.4c1.7,0,2.9-1.2,2.9-3.1c0-2.1-1.2-3.2-3.2-3.3v-0.8c2.4,0.1,3.9,1.7,3.9,4.1
		C43.2,535.1,41.7,536.6,39.6,536.6z"/>
	<path class="st1" d="M36.3,547.6c-4.5,0-6.9-1.5-6.9-4.4s2.3-4.4,6.9-4.4c4.5,0,6.9,1.5,6.9,4.4S40.8,547.6,36.3,547.6z
		 M36.3,539.6c-4.1,0-6.2,1.2-6.2,3.6c0,2.4,2.1,3.6,6.2,3.6s6.2-1.2,6.2-3.6S40.4,539.6,36.3,539.6z"/>
	<path class="st1" d="M39.6,557.6c-2.3,0-3.2-1.4-4.6-3.8c-1.7-3-2.9-3.6-4.7-3.6v7.7h-0.7v-8.4c0.2,0,0.3,0,0.3,0
		c2.3,0,3.7,0.6,5.7,3.9c1.3,2.3,2,3.4,3.9,3.4c1.7,0,2.9-1.2,2.9-3.1c0-2.1-1.2-3.2-3.2-3.3v-0.8c2.4,0.1,3.9,1.7,3.9,4.1
		C43.2,556,41.7,557.6,39.6,557.6z"/>
</g>
<g class="st0">
	<path class="st1" d="M36.3,571.5c-4.5,0-6.9-1.5-6.9-4.4s2.3-4.4,6.9-4.4c4.5,0,6.9,1.5,6.9,4.4S40.8,571.5,36.3,571.5z
		 M36.3,563.5c-4.1,0-6.2,1.2-6.2,3.6c0,2.4,2.1,3.6,6.2,3.6s6.2-1.2,6.2-3.6S40.4,563.5,36.3,563.5z"/>
</g>
<g class="st0">
	<path class="st1" d="M29.7,576h1.6v1h-1.6V576z"/>
</g>
<g class="st0">
	<path class="st1" d="M33.2,584.7c-2.4,0-3.7-1.2-3.7-3.3c0-0.3,0-0.6,0.1-0.8h0.7c-0.1,0.3-0.1,0.5-0.1,0.8c0,1.6,0.9,2.5,2.9,2.5
		h10.5v0.8H33.2z"/>
	<path class="st1" d="M36.2,595.1H32c-0.9,0-1.8,0.1-2.3,0.2v-0.7c0.5-0.1,1.3-0.2,1.9-0.2l0,0c-1.3-0.7-2.1-1.9-2.1-3.7
		c0-2,1.1-3.3,2.8-3.3c1.6,0,2.6,0.9,3,3.6c0.1,0.9,0.3,2.3,0.4,3.3h0.6c2.2,0,3-1.2,3-2.8c0-1.9-1.1-2.9-2.6-3v-0.7
		c1.9,0.1,3.2,1.4,3.2,3.7C39.9,593.7,38.8,595.1,36.2,595.1z M35,594.4c-0.1-1-0.3-2.4-0.4-3.3c-0.3-2.2-1.1-3-2.3-3
		c-1.3,0-2.2,1-2.2,2.7c0,1.1,0.4,2,1,2.5c0.8,0.7,1.4,1,2.9,1L35,594.4L35,594.4z"/>
	<path class="st1" d="M35.8,605.9h-6.1v-0.7h6.1c2.5,0,3.5-1.1,3.5-2.9c0-1.7-1.3-3.2-3.5-3.2h-6.1v-0.7h10v0.7h-1.8l0,0
		c1.2,0.6,2,1.8,2,3.3C39.9,604.7,38.5,605.9,35.8,605.9z"/>
	<path class="st1" d="M33.6,609h6.1v0.7h-6.1c-2.5,0-3.5,1.1-3.5,2.8s1.3,3.2,3.5,3.2h6.1v0.7h-10v-0.7h1.8l0,0
		c-1.2-0.6-2-1.8-2-3.3C29.5,610.3,30.8,609,33.6,609z"/>
	<path class="st1" d="M36.2,626.6H32c-0.9,0-1.8,0.1-2.3,0.2v-0.7c0.5-0.1,1.3-0.2,1.9-0.2l0,0c-1.3-0.7-2.1-1.9-2.1-3.7
		c0-2,1.1-3.3,2.8-3.3c1.6,0,2.6,0.9,3,3.6c0.1,0.9,0.3,2.3,0.4,3.3h0.6c2.2,0,3-1.2,3-2.8c0-1.9-1.1-2.9-2.6-3v-0.7
		c1.9,0.1,3.2,1.4,3.2,3.7C39.9,625.2,38.8,626.6,36.2,626.6z M35,625.9c-0.1-1-0.3-2.4-0.4-3.3c-0.3-2.2-1.1-3-2.3-3
		c-1.3,0-2.2,1-2.2,2.7c0,1.1,0.4,2,1,2.5c0.8,0.7,1.4,1,2.9,1L35,625.9L35,625.9z"/>
	<path class="st1" d="M39.7,634.5H39c0-0.2,0-0.4,0-0.6c0-2-1.3-3.3-3.8-3.3h-5.6V630h10v0.7h-2l0,0c1.3,0.6,2,1.7,2,3.2
		C39.7,634.1,39.7,634.3,39.7,634.5z"/>
	<path class="st1" d="M29.4,639.3c-2.8-1.1-3.4-2-3.4-3.6c0-0.3,0-0.5,0.1-0.8h0.7c-0.1,0.2-0.1,0.5-0.1,0.8c0,1.4,0.5,2,3.1,3l10-4
		v0.8l-9.1,3.6l0,0l9.1,3.7v0.8L29.4,639.3z"/>
</g>
<g class="st0">
	<path class="st1" d="M42.3,664.6l-5.6-0.5l0,0c1,0.6,1.6,1.7,1.6,3.1c0,2.5-1.7,4.1-4.3,4.1c-2.7,0-4.5-1.7-4.5-4.3
		c0-2.3,1.4-3.8,3.7-3.8v0.8c-1.9,0-2.9,1.2-2.9,3.1c0,2.2,1.5,3.5,3.8,3.5s3.7-1.3,3.7-3.4c0-1.6-0.8-2.7-2.4-3.2v-0.7L43,664v6.7
		h-0.7V664.6z"/>
</g>
<g class="st0">
	<path class="st1" d="M39.3,690.3v-0.8c2.7,0,3.9-1.4,3.9-3.9c0-2.2-1.1-3.5-2.9-3.5c-1.9,0-2.5,1.2-3.1,3.8c-0.7,2.8-1.3,4.6-4,4.6
		c-2.3,0-3.8-1.7-3.8-4.6c0-3.1,1.6-4.8,4.9-4.8v0.8c-2.9,0-4.2,1.5-4.2,4.1c0,2.4,1.2,3.8,3.1,3.8c2.1,0,2.6-1.4,3.2-4
		c0.7-2.8,1.4-4.4,3.9-4.4c2.2,0,3.6,1.6,3.6,4.2C43.9,688.7,42.4,690.3,39.3,690.3z"/>
	<path class="st1" d="M34.8,703.3c-3.6,0-5.4-1.7-5.4-4.8s1.8-4.8,5.4-4.8h8.9v0.7h-8.9c-3.2,0-4.7,1.5-4.7,4.1s1.5,4.1,4.7,4.1h8.9
		v0.7H34.8z"/>
	<path class="st1" d="M29.7,716.4l6.4-4L43,708l0,0h-7.4h-6v-0.7h14.1v1.1l-6.4,4l-6.9,4.4l0,0h7.4h6v0.8H29.7V716.4z"/>
	<path class="st1" d="M35.5,729.3l-3.6-8.2h0.8l3.3,7.5l0,0l3.3-7.5H40l-3.6,8.2H35.5z"/>
	<path class="st1" d="M35.5,740.5l-3.6-8.2h0.8l3.3,7.5l0,0l3.3-7.5H40l-3.6,8.2H35.5z"/>
	<path class="st1" d="M35.5,751.7l-3.6-8.2h0.8L36,751l0,0l3.3-7.5H40l-3.6,8.2H35.5z"/>
</g>
<g class="st0">
	<path class="st1" d="M29.7,767.4h11.4l0,0c-0.7-0.5-0.9-1.5-0.9-2.8h0.7c0,1.9,0.6,2.7,2.2,3v0.6H29.7V767.4z"/>
	<path class="st1" d="M32.8,773.9v0.8c-1.7,0.3-2.7,1.3-2.7,3c0,2.4,2.1,3.8,6.8,3.8l0,0c-1.5-0.5-2.6-1.8-2.6-3.6
		c0-2.4,1.8-4.1,4.4-4.1c2.7,0,4.5,1.7,4.5,4.1c0,2.8-2.1,4.3-6.3,4.3c-5,0-7.5-1.7-7.5-4.5C29.4,775.5,30.7,774.2,32.8,773.9z
		 M38.6,781.2c2.3,0,3.9-1.2,3.9-3.4c0-2-1.5-3.4-3.8-3.4c-2.2,0-3.7,1.4-3.7,3.4S36.5,781.2,38.6,781.2z"/>
	<path class="st1" d="M39.3,797.8V797c2.7,0,3.9-1.4,3.9-3.9c0-2.2-1.1-3.5-2.9-3.5c-1.9,0-2.5,1.2-3.1,3.8c-0.7,2.8-1.3,4.6-4,4.6
		c-2.3,0-3.8-1.7-3.8-4.6c0-3.1,1.6-4.8,4.9-4.8v0.8c-2.9,0-4.2,1.5-4.2,4.1c0,2.4,1.2,3.8,3.1,3.8c2.1,0,2.6-1.4,3.2-4
		c0.7-2.8,1.4-4.4,3.9-4.4c2.2,0,3.6,1.6,3.6,4.2C43.9,796.3,42.4,797.8,39.3,797.8z"/>
	<path class="st1" d="M34.8,810.8c-3.6,0-5.4-1.7-5.4-4.8s1.8-4.8,5.4-4.8h8.9v0.7h-8.9c-3.2,0-4.7,1.5-4.7,4.1s1.5,4.1,4.7,4.1h8.9
		v0.7H34.8z"/>
	<path class="st1" d="M29.7,824l6.4-4l6.9-4.4l0,0h-7.4h-6v-0.7h14.1v1.1l-6.4,4l-6.9,4.4l0,0h7.4h6v0.8H29.7V824z"/>
</g>
<g class="st0">
	<path class="st1" d="M11.8,472.8c-2.3,0-3.2-1.4-4.6-3.8c-1.7-3-2.9-3.6-4.7-3.6v7.7H1.8v-8.4c0.2,0,0.3,0,0.3,0
		c2.3,0,3.7,0.6,5.7,3.9c1.3,2.3,2,3.4,3.9,3.4c1.7,0,2.9-1.2,2.9-3.1c0-2.1-1.2-3.2-3.2-3.3v-0.8c2.4,0.1,3.9,1.7,3.9,4.1
		C15.4,471.3,13.9,472.8,11.8,472.8z"/>
</g>
<g class="st0">
	<path class="st1" d="M7.4,482.6H1.8V482h5.6c2.3,0,3.2-1,3.2-2.6s-1.2-2.9-3.2-2.9H1.8v-0.6H11v0.6H9.4l0,0c1.1,0.5,1.8,1.7,1.8,3
		C11.2,481.5,9.9,482.6,7.4,482.6z"/>
</g>
<g class="st0">
	<path class="st1" d="M1.8,492.2h2l0,0c-1.3-0.5-2.1-1.6-2.1-3c0-2.4,1.8-3.8,4.8-3.8s4.8,1.5,4.8,3.8c0,1.4-0.8,2.6-2.1,3l0,0h5.6
		v0.6h-13V492.2z M6.4,486c-2.6,0-4.2,1.2-4.2,3.2c0,1.9,1.6,3,4.2,3s4.2-1.2,4.2-3C10.6,487.2,9,486,6.4,486z"/>
</g>
<g class="st0">
	<path class="st1" d="M7.2,495.9H8v4.4H7.2V495.9z"/>
	<path class="st1" d="M7.2,499.5H8v4.4H7.2V499.5z"/>
	<path class="st1" d="M7.2,503H8v4.4H7.2V503z"/>
</g>
<g class="st0">
	<path class="st1" d="M7.2,506H8v4.4H7.2V506z"/>
</g>
<g class="st0">
	<path class="st1" d="M7.2,510.2H8v4.4H7.2V510.2z"/>
	<path class="st1" d="M7.2,513.8H8v4.4H7.2V513.8z"/>
</g>
<g class="st0">
	<path class="st1" d="M7.2,517H8v4.4H7.2V517z"/>
</g>
<g class="st0">
	<path class="st1" d="M11.8,536c-2.3,0-3.2-1.4-4.6-3.8c-1.7-3-2.9-3.6-4.7-3.6v7.7H1.8v-8.4c0.2,0,0.3,0,0.3,0
		c2.3,0,3.7,0.6,5.7,3.9c1.3,2.3,2,3.4,3.9,3.4c1.7,0,2.9-1.2,2.9-3.1c0-2.1-1.2-3.2-3.2-3.3V528c2.4,0.1,3.9,1.7,3.9,4.1
		C15.4,534.4,13.9,536,11.8,536z"/>
	<path class="st1" d="M8.5,546.9c-4.5,0-6.9-1.5-6.9-4.4s2.3-4.4,6.9-4.4c4.5,0,6.9,1.5,6.9,4.4S13,546.9,8.5,546.9z M8.5,538.9
		c-4.1,0-6.2,1.2-6.2,3.6c0,2.4,2.1,3.6,6.2,3.6s6.2-1.2,6.2-3.6C14.7,540.2,12.6,538.9,8.5,538.9z"/>
	<path class="st1" d="M11.8,556.9c-2.3,0-3.2-1.4-4.6-3.8c-1.7-3-2.9-3.6-4.7-3.6v7.7H1.8v-8.4c0.2,0,0.3,0,0.3,0
		c2.3,0,3.7,0.6,5.7,3.9c1.3,2.3,2,3.4,3.9,3.4c1.7,0,2.9-1.2,2.9-3.1c0-2.1-1.2-3.2-3.2-3.3v-0.8c2.4,0.1,3.9,1.7,3.9,4.1
		C15.4,555.3,13.9,556.9,11.8,556.9z"/>
</g>
<g class="st0">
	<path class="st1" d="M8.5,570.8c-4.5,0-6.9-1.5-6.9-4.4s2.3-4.4,6.9-4.4c4.5,0,6.9,1.5,6.9,4.4S13,570.8,8.5,570.8z M8.5,562.8
		c-4.1,0-6.2,1.2-6.2,3.6c0,2.4,2.1,3.6,6.2,3.6s6.2-1.2,6.2-3.6S12.6,562.8,8.5,562.8z"/>
</g>
<g class="st0">
	<path class="st1" d="M1.8,574.9h1.6v1H1.8V574.9z"/>
</g>
<g class="st0">
	<path class="st1" d="M15.2,581.4H9.4v7H8.7v-7H1.8v-0.7h14.1v8.2h-0.7C15.2,588.9,15.2,581.4,15.2,581.4z"/>
</g>
<g class="st0">
	<path class="st1" d="M4.8,598.5v0.8c-1.8-0.3-3.2-1.7-3.2-4c0-2.7,2.1-4.4,5.4-4.4c3,0,5,1.6,5,4.3c0,2.2-1.4,3.7-3.6,4.1
		c-0.5,0.1-1.1,0.1-1.7,0.1v-7.8c-2.9,0-4.5,1.5-4.5,3.7C2.3,597,3.3,598.3,4.8,598.5z M7.4,591.6v7.1c2.6-0.1,4-1.5,4-3.6
		C11.5,593,9.9,591.7,7.4,591.6z"/>
	<path class="st1" d="M9.7,602.8c1.5,0.5,2.3,1.8,2.3,3.3c0,2.6-2,4.2-5.2,4.2s-5.2-1.6-5.2-4.2c0-1.6,0.9-2.8,2.3-3.3l0,0H1.8V602
		h14.1v0.7L9.7,602.8L9.7,602.8z M6.9,602.7c-2.8,0-4.6,1.3-4.6,3.3c0,2.2,1.8,3.6,4.6,3.6s4.6-1.4,4.6-3.6
		C11.5,604,9.7,602.7,6.9,602.7z"/>
	<path class="st1" d="M11.9,617.5h-0.7c0-0.2,0-0.4,0-0.6c0-2-1.3-3.3-3.8-3.3H1.8V613h10v0.7h-2l0,0c1.3,0.6,2,1.7,2,3.2
		C11.9,617.1,11.9,617.3,11.9,617.5z"/>
	<path class="st1" d="M5.8,619.4h6.1v0.7H5.8c-2.5,0-3.5,1.1-3.5,2.8s1.3,3.2,3.5,3.2h6.1v0.7h-10v-0.7h1.8l0,0
		c-1.2-0.6-2-1.8-2-3.3C1.6,620.7,3,619.4,5.8,619.4z"/>
	<path class="st1" d="M8.4,637H4.2c-0.9,0-1.8,0.1-2.3,0.2v-0.7c0.5-0.1,1.3-0.2,1.9-0.2l0,0c-1.3-0.7-2.1-1.9-2.1-3.7
		c0-2,1.1-3.3,2.8-3.3c1.6,0,2.6,0.9,3,3.6c0.1,0.9,0.3,2.3,0.4,3.3h0.6c2.2,0,3-1.2,3-2.8c0-1.9-1.1-2.9-2.6-3v-0.7
		c1.9,0.1,3.2,1.4,3.2,3.7C12.1,635.6,10.9,637,8.4,637z M7.2,636.4c-0.1-1-0.3-2.4-0.4-3.3c-0.3-2.2-1.1-3-2.3-3
		c-1.3,0-2.2,1-2.2,2.7c0,1.1,0.4,2,1,2.5c0.8,0.7,1.4,1,2.9,1L7.2,636.4L7.2,636.4z"/>
	<path class="st1" d="M11.9,644.9h-0.7c0-0.2,0-0.4,0-0.6c0-2-1.3-3.3-3.8-3.3H1.8v-0.7h10v0.7h-2l0,0c1.3,0.6,2,1.7,2,3.2
		C11.9,644.5,11.9,644.7,11.9,644.9z"/>
	<path class="st1" d="M1.5,649.8c-2.8-1.1-3.4-2-3.4-3.6c0-0.3,0-0.5,0.1-0.8h0.7c-0.1,0.2-0.1,0.5-0.1,0.8c0,1.4,0.5,2,3.1,3l10-4
		v0.8l-9.1,3.6l0,0l9.1,3.7v0.8L1.5,649.8z"/>
</g>
<g class="st0">
	<path class="st1" d="M11.8,670c-1.6,0-2.6-1-3.1-2.5l0,0c-0.5,1.6-1.6,2.8-3.3,2.8c-2.2,0-3.8-1.8-3.8-4.3s1.6-4.3,3.8-4.3
		c1.7,0,2.8,1.1,3.3,2.7l0,0c0.5-1.4,1.5-2.5,3.1-2.5c2.1,0,3.5,1.7,3.5,4C15.4,668.3,13.9,670,11.8,670z M5.4,662.5
		c-1.9,0-3.1,1.5-3.1,3.5s1.2,3.5,3.1,3.5c1.7,0,2.9-1.5,2.9-3.5C8.4,664,7.1,662.5,5.4,662.5z M11.8,662.8c-1.7,0-2.8,1.3-2.8,3.2
		c0,2,1.1,3.2,2.8,3.2s2.8-1.3,2.8-3.2S13.5,662.8,11.8,662.8z"/>
</g>
<g class="st0">
	<path class="st1" d="M11.5,688.3v-0.8c2.7,0,3.9-1.4,3.9-3.9c0-2.2-1.1-3.5-2.9-3.5c-1.9,0-2.5,1.2-3.1,3.8c-0.7,2.8-1.3,4.6-4,4.6
		c-2.3,0-3.8-1.7-3.8-4.6c0-3.1,1.6-4.8,4.9-4.8v0.8c-2.9,0-4.2,1.5-4.2,4.1c0,2.4,1.2,3.8,3.1,3.8c2.1,0,2.6-1.4,3.2-4
		c0.7-2.8,1.4-4.4,3.9-4.4c2.2,0,3.6,1.6,3.6,4.2C16.1,686.7,14.5,688.3,11.5,688.3z"/>
	<path class="st1" d="M7,701.3c-3.6,0-5.4-1.7-5.4-4.8s1.8-4.8,5.4-4.8h8.9v0.7H7c-3.2,0-4.7,1.5-4.7,4.1s1.5,4.1,4.7,4.1h8.9v0.7H7
		z"/>
	<path class="st1" d="M1.8,714.4l6.4-4l6.9-4.4l0,0H7.8h-6v-0.7h14.1v1.1l-6.4,4l-6.9,4.4l0,0H10h6v0.8H1.8V714.4z"/>
	<path class="st1" d="M7.6,727.3L4,719.1h0.8l3.3,7.5l0,0l3.3-7.5h0.8l-3.6,8.2H7.6z"/>
	<path class="st1" d="M7.6,738.5L4,730.3h0.8l3.3,7.5l0,0l3.3-7.5h0.8l-3.6,8.2H7.6z"/>
	<path class="st1" d="M7.6,749.7L4,741.5h0.8l3.3,7.5l0,0l3.3-7.5h0.8l-3.6,8.2H7.6z"/>
	<path class="st1" d="M11.8,764.9c-1.6,0-2.6-1-3.1-2.5l0,0c-0.5,1.6-1.6,2.8-3.3,2.8c-2.2,0-3.8-1.8-3.8-4.3s1.6-4.3,3.8-4.3
		c1.7,0,2.8,1.1,3.3,2.7l0,0c0.5-1.4,1.5-2.5,3.1-2.5c2.1,0,3.5,1.7,3.5,4C15.4,763.2,13.9,764.9,11.8,764.9z M5.4,757.4
		c-1.9,0-3.1,1.5-3.1,3.5s1.2,3.5,3.1,3.5c1.7,0,2.9-1.5,2.9-3.5C8.4,758.9,7.1,757.4,5.4,757.4z M11.8,757.7
		c-1.7,0-2.8,1.3-2.8,3.2c0,2,1.1,3.2,2.8,3.2s2.8-1.3,2.8-3.2S13.5,757.7,11.8,757.7z"/>
</g>
<g class="st0">
	<path class="st1" d="M11.5,801.4v-0.8c2.7,0,3.9-1.4,3.9-3.9c0-2.2-1.1-3.5-2.9-3.5c-1.9,0-2.5,1.2-3.1,3.8c-0.7,2.8-1.3,4.6-4,4.6
		c-2.3,0-3.8-1.7-3.8-4.6c0-3.1,1.6-4.8,4.9-4.8v0.8c-2.9,0-4.2,1.5-4.2,4.1c0,2.4,1.2,3.8,3.1,3.8c2.1,0,2.6-1.4,3.2-4
		c0.7-2.8,1.4-4.4,3.9-4.4c2.2,0,3.6,1.6,3.6,4.2C16.1,799.8,14.5,801.4,11.5,801.4z"/>
	<path class="st1" d="M6.8,805.5l-4.9-2v-0.8l14.1,5.8v1l-14.1,5.8v-0.8l4.9-2C6.8,812.5,6.8,805.5,6.8,805.5z M9.2,811.5
		c2.1-0.8,4-1.6,6-2.5l0,0c-2-0.8-4-1.6-6-2.5l-1.7-0.7v6.4L9.2,811.5z"/>
	<path class="st1" d="M15.2,819.7H1.8V819h13.4v-5.2h0.7v11.1h-0.7V819.7z"/>
</g>
<g class="st0">
	<path class="st1" d="M44.6,1.1h-20V24h-1V1.1H0.8v-1h44.8v25.1h-1V1.1z"/>
	<path class="st1" d="M17.2,66.2c-11.3,0-17-5.3-17-14.9s5.7-14.9,17-14.9h28.5v1H17.2c-10.7,0-16,4.8-16,13.9s5.3,13.9,16,13.9
		h28.5v1H17.2z"/>
	<path class="st1" d="M11.6,86.9c-7.2,0-11-3.5-11-9.4c0-0.9,0.1-1.8,0.3-2.5h1c-0.2,0.8-0.3,1.6-0.3,2.5c0,5.3,3.3,8.4,10,8.4h34.1
		v1H11.6z"/>
	<path class="st1" d="M0.8,102.8h44.8v1H0.8V102.8z"/>
	<path class="st1" d="M31.3,144.8v-1c9.4,0,13.9-4.5,13.9-13.3c0-7.4-4-12-10.3-12c-6.5,0-8.6,4-10.8,12.7
		c-2.3,9.5-4.2,14.4-12.5,14.4c-7.1,0-11.5-5.3-11.5-14c0-9.6,5.1-14.9,15.6-14.9v1c-9.9,0-14.6,4.8-14.6,13.9c0,8.1,4,13,10.5,13
		c7.9,0,9.3-4.7,11.5-13.6c2.3-9.2,4.7-13.5,11.8-13.5c6.8,0,11.3,5.1,11.3,13C46.2,139.9,41.2,144.8,31.3,144.8z"/>
	<path class="st1" d="M17.5,160.5l-16.7-7.1v-1.1l44.8,18.9v1.3l-44.8,19v-1.1l16.7-7.1V160.5z M24.7,180.3l19.9-8.4v-0.1l-19.9-8.4
		l-6.2-2.6v22L24.7,180.3z"/>
	<path class="st1" d="M0.8,230.6l21-14l22.9-15.3v-0.1H20.4H0.8v-1h44.8v1.6l-21,14L1.7,231.1v0.1H26h19.6v1H0.8V230.6z"/>
	<path class="st1" d="M44.6,258.3H0.8v-1h43.8v-17.1h1v35.1h-1V258.3z"/>
	<path class="st1" d="M44.6,284.3H24.3v23.5h-1v-23.5H1.8v25.5h-1v-26.5h44.8v25.6h-1V284.3z"/>
	<path class="st1" d="M0.8,353.5l21-14l22.9-15.3v-0.1H20.4H0.8v-1h44.8v1.6l-21,14L1.7,354.1v0.1H26h19.6v1H0.8V353.5z"/>
	<path class="st1" d="M32.9,410.4c-5.9,0-9.2-3.3-10.4-8.4h-0.1c-1.2,5.6-4.7,9.3-10.8,9.3c-6.6,0-11.5-5.8-11.5-13.5
		c0-7.9,4.8-12.6,12-12.6v1c-6.5,0-11,4.2-11,11.6c0,7.2,4.4,12.5,10.5,12.5c6.6,0,10.3-4.8,10.3-12.5V395h1v2.9
		c0,7.5,3.8,11.6,9.9,11.6c5.9,0,9.9-4.7,9.9-11.8c0-6.7-3.9-11.1-10.8-11.1v-1c7.5,0,11.8,4.8,11.8,12.2
		C43.9,405.3,39.4,410.4,32.9,410.4z"/>
	<path class="st1" d="M0.8,421.6h4.5v1.1H0.8V421.6z"/>
	<path class="st1" d="M22,459.4c-14.5,0-21.8-4.6-21.8-13.6s7.4-13.6,21.8-13.6s21.8,4.6,21.8,13.6S36.4,459.4,22,459.4z M22,433.2
		c-13.9,0-20.8,4.2-20.8,12.6s6.9,12.6,20.8,12.6c13.8,0,20.8-4.2,20.8-12.6S35.8,433.2,22,433.2z"/>
</g>
</svg>
