<?xml version="1.0" encoding="utf-8"?>
<!-- Generator: Adobe Illustrator 23.1.1, SVG Export Plug-In . SVG Version: 6.00 Build 0)  -->
<svg version="1.1" id="レイヤー_1" xmlns="http://www.w3.org/2000/svg" xmlns:xlink="http://www.w3.org/1999/xlink" x="0px"
	 y="0px" viewBox="0 0 426.79 128.72" style="enable-background:new 0 0 426.79 128.72;" xml:space="preserve">
<style type="text/css">
	.st0{fill:#040000;}
</style>
<g>
	<path class="st0" d="M19.2,73.76h-18v37.8H0v-39h19.2V73.76z"/>
	<path class="st0" d="M73.14,76.52v10.26h-1.26v-9.12H25.56v9.12h-1.2V76.52H73.14z M28.08,125.42v2.22h-1.2v-21.66h43.38v21.66
		h-1.2v-2.22H28.08z M47.76,114.98v-7.86H28.08v7.86H47.76z M47.76,124.28v-8.16H28.08v8.16H47.76z M66.24,83.36v1.14H31.08v-1.14
		H66.24z M64.92,90.14v10.14h-32.7V90.14H64.92z M33.42,99.14h30.24v-7.86H33.42V99.14z M69.06,114.98v-7.86h-20.1v7.86H69.06z
		 M69.06,124.28v-8.16h-20.1v8.16H69.06z"/>
	<path class="st0" d="M78.48,117.5l-0.9-0.9c3.9-2.64,8.52-7.56,10.86-12.78c-0.3-3-0.9-6-2.28-8.94c-2.4,2.64-5.04,4.86-7.5,6.48
		l-0.84-0.78c2.52-1.62,5.28-4.02,7.74-6.78c-1.32-2.52-3.3-5.04-6.12-7.5l0.9-0.78c2.76,2.4,4.68,4.86,6.06,7.26
		c1.92-2.28,3.6-4.8,4.8-7.38l1.08,0.54c-1.32,2.82-3.18,5.58-5.28,7.98c2.7,5.4,2.88,10.86,2.88,16.56
		c0,11.82-0.18,16.44-3.9,16.92c-1.68,0.18-4.38,0.18-6.3-0.06l-0.06-1.14c1.8,0.24,4.5,0.24,5.94,0.06
		c3.06-0.36,3.12-4.38,3.12-15.78c0-1.5,0-3-0.06-4.5C86.04,110.78,82.08,114.98,78.48,117.5z M83.94,75.92v5.7h20.4v-7.98h1.2v7.98
		h21v-5.7h1.26v6.84H82.74v-6.84H83.94z M111.96,93.68v1.14H91.98v-1.14H111.96z M96,112.64h13.5v12.06H96v2.7h-1.2v-14.76h0.6H96z
		 M108.96,99.92v1.14H95.1v-1.14H108.96z M108.96,106.28v1.14H95.1v-1.14H108.96z M108.78,87.62v1.14H95.34v-1.14H108.78z
		 M108.24,123.56v-9.78H96v9.78H108.24z M132.6,126.62l-0.9,0.96c-4.98-4.14-8.34-12.06-10.08-25.56
		c-1.14,11.46-4.02,19.98-11.82,25.56l-0.96-0.84c8.4-5.88,11.04-15.06,11.94-27.54h-9.42v-1.14h9.48c0.24-3.9,0.3-8.16,0.36-12.72
		h1.2c-0.06,4.56-0.18,8.82-0.48,12.72h10.26v1.14h-9.72C124.08,113.84,127.32,122.48,132.6,126.62z M126.24,86.42
		c2.16,2.76,3.78,5.28,4.74,7.68l-1.14,0.54c-0.9-2.34-2.46-4.92-4.56-7.56L126.24,86.42z"/>
	<path class="st0" d="M188.66,119.48v1.2h-53.88v-1.2H188.66z M182.06,80.96v1.2h-40.38v-1.2H182.06z"/>
	<path class="st0" d="M214.82,125.24c-13.56,0-24.6-11.04-24.6-24.6c0-13.56,11.04-24.6,24.6-24.6s24.6,11.04,24.6,24.6
		C239.42,114.2,228.38,125.24,214.82,125.24z M214.82,77.24c-12.9,0-23.4,10.5-23.4,23.4c0,12.9,10.5,23.4,23.4,23.4
		s23.4-10.5,23.4-23.4C238.22,87.74,227.72,77.24,214.82,77.24z"/>
	<path class="st0" d="M294.81,119.48v1.2h-53.88v-1.2H294.81z M288.21,80.96v1.2h-40.38v-1.2H288.21z"/>
	<path class="st0" d="M320.97,125.24c-13.56,0-24.6-11.04-24.6-24.6c0-13.56,11.04-24.6,24.6-24.6s24.6,11.04,24.6,24.6
		C345.57,114.2,334.53,125.24,320.97,125.24z M320.97,77.24c-12.9,0-23.4,10.5-23.4,23.4c0,12.9,10.5,23.4,23.4,23.4
		s23.4-10.5,23.4-23.4C344.37,87.74,333.87,77.24,320.97,77.24z"/>
	<path class="st0" d="M377.47,95.96v-5.22h-18.54v-15h38.58v15h-18.84v5.22h26.4v1.14h-53.88v-1.14H377.47z M368.11,115.58
		c-3.6,4.26-9.36,7.98-14.52,10.62l-1.2-0.78c5.16-2.4,10.98-6.06,14.4-10.2L368.11,115.58z M378.67,125.24
		c0,1.26-0.42,2.1-1.74,2.28c-1.14,0.18-4.8,0.12-7.26,0.06v-1.2c2.16,0.06,5.64,0.06,6.48,0.06c0.96-0.06,1.32-0.48,1.32-1.32
		v-12.96h-17.76v-10.14h37.14v10.14h-18.18V125.24z M360.13,82.58h36.18v-5.7h-36.18V82.58z M360.13,89.6h36.18v-5.88h-36.18V89.6z
		 M360.91,111.02h34.68v-7.86h-34.68V111.02z M389.65,115.1c5.7,3.66,10.38,7.08,14.28,10.08l-1.08,0.72
		c-3.72-3-8.46-6.42-14.1-10.08L389.65,115.1z"/>
	<path class="st0" d="M407.59,127.52h18v-37.8h1.2v39h-19.2V127.52z"/>
</g>
<g>
	<path class="st0" d="M22.94,5.98V0.04h1.2v5.94h23.58v9.48h-1.2V7.12H1.4v8.34H0.2V5.98H22.94z M3.5,52.06v1.98H2.3V33.16h42.96
		v20.88h-1.2v-1.98H3.5z M22.94,41.86V34.3H3.5v7.56H22.94z M22.94,50.92V43H3.5v7.92H22.94z M41.12,12.46v1.14H6.8v-1.14H41.12z
		 M39.5,18.58v9.6H8.06v-9.6H39.5z M9.26,27.04H38.3v-7.32H9.26V27.04z M44.06,41.86V34.3H24.14v7.56H44.06z M44.06,50.92V43H24.14
		v7.92H44.06z"/>
	<path class="st0" d="M77.79,49.54V21.76H51.81v-1.14h25.98V0.16h1.2v20.46h26.28v1.14H78.99v27.78h21.66v1.14H56.31v-1.14H77.79z"
		/>
	<path class="st0" d="M133.64,47.5V0.46h1.2V47.5h21.18V13.42h1.2v40.14h-1.2v-4.92h-42.78v4.92h-1.2V13.42h1.2V47.5H133.64z"/>
	<path class="st0" d="M181.45,51.4V33.58h-10.68c-0.9,7.14-2.82,13.8-6.12,19.56l-1.02-0.84c4.98-8.4,6.6-19.02,6.6-29.82V1.84h0.6
		h0.6h42.96v11.34h-42.96v9.3c0,3.36-0.18,6.72-0.54,9.96h13.44v-9.96h-10.86v-1.14h10.86V14.5h1.2v6.84h16.92V14.5h1.2v6.84h11.94
		v1.14h-11.94v9.96h14.52v1.14H194.4c1.74,4.56,4.14,8.22,7.08,11.1c5.1-2.94,10.2-6.24,12.9-8.58l0.96,0.78
		c-3,2.4-8.04,5.64-13.02,8.52c4.32,3.9,9.78,6.3,16.08,7.62l-0.84,0.96c-11.22-2.52-19.98-8.34-24.36-20.4h-10.56v17.64
		c5.82-0.9,12.48-1.98,17.22-2.76l0.06,1.14c-7.44,1.32-19.32,3.24-25.8,4.2l-0.36-1.26C175.81,52.24,178.51,51.82,181.45,51.4z
		 M213.12,12.04V2.98h-41.7v9.06H213.12z M202.44,32.44v-9.96h-16.92v9.96H202.44z"/>
	<path class="st0" d="M266.19,38.59c0,7.46-4.11,15.81-17.17,15.81c-3.49,0-7.59-0.55-10.81-1.57l0.27-1.37
		c3.35,1.16,7.59,1.57,10.54,1.57c8.69,0,15.81-4.31,15.81-14.44c0-7.87-4.38-11.77-16.35-11.77h-4.17v-1.37h3.28
		c9.51,0,15.39-5.34,15.39-13.48c0-5.95-3.22-10.33-10.54-10.33c-4.72,0-9.44,1.44-13.21,3.76l-0.48-1.16
		c3.9-2.46,8.76-3.97,13.68-3.97c6.02,0,11.9,3.08,11.9,11.63c0,6.5-3.69,12.79-13.07,13.96C263.18,26.07,266.19,31.75,266.19,38.59
		z"/>
	<path class="st0" d="M277.91,53.57h-2.8v-3.63h2.8V53.57z"/>
	<path class="st0" d="M317.66,27.44c0,19.29-6.36,27.23-16.35,27.23s-16.28-7.94-16.28-27.3C285.02,7.94,291.32,0,301.31,0
		s16.35,7.94,16.35,27.37V27.44z M286.39,27.44c0,17.31,4.99,25.86,14.92,25.86s14.98-8.55,14.98-25.93c0-17.45-5.06-26-14.98-26
		s-14.92,8.55-14.92,26V27.44z"/>
</g>
</svg>
